<?xml version="1.0" encoding="UTF-8" standalone="no"?>
<svg
   xmlns:dc="http://purl.org/dc/elements/1.1/"
   xmlns:cc="http://creativecommons.org/ns#"
   xmlns:rdf="http://www.w3.org/1999/02/22-rdf-syntax-ns#"
   xmlns:svg="http://www.w3.org/2000/svg"
   xmlns="http://www.w3.org/2000/svg"
   xmlns:sodipodi="http://sodipodi.sourceforge.net/DTD/sodipodi-0.dtd"
   xmlns:inkscape="http://www.inkscape.org/namespaces/inkscape"
   id="svg8"
   version="1.1"
   viewBox="0 0 90.22085 79.96359"
   height="79.963593mm"
   width="90.220848mm"
   sodipodi:docname="error_5xx.svg"
   inkscape:version="0.92.1 r">
  <metadata
     id="metadata4492">
    <rdf:RDF>
      <cc:Work
         rdf:about="">
        <dc:format>image/svg+xml</dc:format>
        <dc:type
           rdf:resource="http://purl.org/dc/dcmitype/StillImage" />
        <dc:title></dc:title>
      </cc:Work>
    </rdf:RDF>
  </metadata>
  <sodipodi:namedview
     pagecolor="#ffffff"
     bordercolor="#666666"
     borderopacity="1"
     objecttolerance="10"
     gridtolerance="10"
     guidetolerance="10"
     inkscape:pageopacity="0"
     inkscape:pageshadow="2"
     inkscape:window-width="1916"
     inkscape:window-height="1041"
     id="namedview4490"
     showgrid="false"
     inkscape:zoom="0.85120711"
     inkscape:cx="78.841187"
     inkscape:cy="-78.560766"
     inkscape:window-x="1920"
     inkscape:window-y="18"
     inkscape:window-maximized="0"
     inkscape:current-layer="svg8"
     fit-margin-top="0"
     fit-margin-left="0"
     fit-margin-right="0"
     fit-margin-bottom="0" />
  <defs
     id="defs4571" />
  <path
     style="color:#000000;font-style:normal;font-variant:normal;font-weight:normal;font-stretch:normal;font-size:medium;line-height:normal;font-family:sans-serif;font-variant-ligatures:normal;font-variant-position:normal;font-variant-caps:normal;font-variant-numeric:normal;font-variant-alternates:normal;font-feature-settings:normal;text-indent:0;text-align:start;text-decoration:none;text-decoration-line:none;text-decoration-style:solid;text-decoration-color:#000000;letter-spacing:normal;word-spacing:normal;text-transform:none;writing-mode:lr-tb;direction:ltr;text-orientation:mixed;dominant-baseline:auto;baseline-shift:baseline;text-anchor:start;white-space:normal;shape-padding:0;clip-rule:nonzero;display:inline;overflow:visible;visibility:visible;opacity:1;isolation:auto;mix-blend-mode:normal;color-interpolation:sRGB;color-interpolation-filters:linearRGB;solid-color:#000000;solid-opacity:1;vector-effect:none;fill:#ffffff;fill-opacity:1;fill-rule:nonzero;stroke:none;stroke-width:1.44561982;stroke-linecap:round;stroke-linejoin:round;stroke-miterlimit:4;stroke-dasharray:none;stroke-dashoffset:0;stroke-opacity:1;marker:none;color-rendering:auto;image-rendering:auto;shape-rendering:auto;text-rendering:auto;enable-background:accumulate"
     d="M 4.0007911,0 C 1.7973305,0 0,1.796296 0,3.9997561 V 5.232239 C 0,7.4356885 1.7973411,9.2314792 4.0007911,9.2314792 H 4.9009936 V 71.75583 c 3.97e-5,0.399177 0.3237733,0.722913 0.7229528,0.722952 H 37.11505 c 0.413221,4.193649 3.959503,7.484814 8.259445,7.484814 4.299929,0 7.847076,-3.291165 8.260477,-7.484814 h 30.944366 c 0.399179,-3.9e-5 0.722913,-0.323775 0.722953,-0.722952 V 9.2314792 h 0.917773 c 2.203461,0 4.000789,-1.7957907 4.000789,-3.9992402 V 3.9997561 C 90.220853,1.796296 88.423525,0 86.220064,0 Z m 0,1.4459067 H 86.220064 c 1.427599,0 2.555399,1.1262593 2.555399,2.5538494 V 5.232239 c 0,1.42758 -1.1278,2.5538505 -2.555399,2.5538505 H 84.579338 5.6239464 4.0007911 C 2.5732,7.7860895 1.4453923,6.659819 1.4453923,5.232239 V 3.9997561 c 0,-1.4275901 1.1278077,-2.5538494 2.5553988,-2.5538494 z M 40.296252,20.600295 h 7.815543 c 0.301813,0 0.555728,0.09961 0.762227,0.298172 0.206508,0.198562 0.310058,0.432758 0.310058,0.702799 0,0.127077 -0.03994,0.270066 -0.119372,0.428914 l -4.074687,11.031887 9.4356,-2.335261 c 0.127074,-0.03177 0.222748,-0.04754 0.286287,-0.04754 0.301813,0 0.571498,0.11933 0.809771,0.3576 0.285919,0.317696 0.341648,0.667277 0.166915,1.048515 l -12.8664,27.567827 c -0.206507,0.397119 -0.54031,0.595829 -1.000971,0.595829 -0.06354,0 -0.174461,-0.01577 -0.333314,-0.04754 -0.270039,-0.07942 -0.472689,-0.230296 -0.607714,-0.452684 -0.135014,-0.222387 -0.171027,-0.461047 -0.107487,-0.715203 l 4.694288,-19.252055 -9.673828,2.406571 c -0.06354,0.01588 -0.159203,0.02379 -0.28629,0.02379 -0.285925,0 -0.531948,-0.08727 -0.738455,-0.262001 -0.285919,-0.238273 -0.388961,-0.548423 -0.309541,-0.929659 l 4.788855,-19.657198 c 0.06353,-0.22239 0.190743,-0.405326 0.38137,-0.548288 0.190609,-0.142962 0.412978,-0.214455 0.667145,-0.214455 z m -1.524974,51.878487 h 13.207463 c -0.401838,3.296251 -3.196537,5.836336 -6.604246,5.836336 -3.407722,0 -6.201566,-2.540085 -6.603217,-5.836336 z"
     id="rect4550"
     inkscape:connector-curvature="0" />
</svg>
