<?xml version="1.0" encoding="UTF-8" standalone="no"?>
<svg
   xmlns:dc="http://purl.org/dc/elements/1.1/"
   xmlns:cc="http://creativecommons.org/ns#"
   xmlns:rdf="http://www.w3.org/1999/02/22-rdf-syntax-ns#"
   xmlns:svg="http://www.w3.org/2000/svg"
   xmlns="http://www.w3.org/2000/svg"
   xmlns:sodipodi="http://sodipodi.sourceforge.net/DTD/sodipodi-0.dtd"
   xmlns:inkscape="http://www.inkscape.org/namespaces/inkscape"
   id="svg8"
   version="1.1"
   viewBox="0 0 90.22085 79.96359"
   height="79.963593mm"
   width="90.220848mm"
   sodipodi:docname="error_403.svg"
   inkscape:version="0.92.1 r">
  <metadata
     id="metadata4492">
    <rdf:RDF>
      <cc:Work
         rdf:about="">
        <dc:format>image/svg+xml</dc:format>
        <dc:type
           rdf:resource="http://purl.org/dc/dcmitype/StillImage" />
        <dc:title></dc:title>
      </cc:Work>
    </rdf:RDF>
  </metadata>
  <sodipodi:namedview
     pagecolor="#ffffff"
     bordercolor="#666666"
     borderopacity="1"
     objecttolerance="10"
     gridtolerance="10"
     guidetolerance="10"
     inkscape:pageopacity="0"
     inkscape:pageshadow="2"
     inkscape:window-width="1916"
     inkscape:window-height="1041"
     id="namedview4490"
     showgrid="false"
     inkscape:zoom="1.2037886"
     inkscape:cx="99.17618"
     inkscape:cy="118.9564"
     inkscape:window-x="1920"
     inkscape:window-y="18"
     inkscape:window-maximized="0"
     inkscape:current-layer="svg8"
     fit-margin-top="0"
     fit-margin-left="0"
     fit-margin-right="0"
     fit-margin-bottom="0" />
  <defs
     id="defs4571" />
  <path
     style="color:#000000;font-style:normal;font-variant:normal;font-weight:normal;font-stretch:normal;font-size:medium;line-height:normal;font-family:sans-serif;font-variant-ligatures:normal;font-variant-position:normal;font-variant-caps:normal;font-variant-numeric:normal;font-variant-alternates:normal;font-feature-settings:normal;text-indent:0;text-align:start;text-decoration:none;text-decoration-line:none;text-decoration-style:solid;text-decoration-color:#000000;letter-spacing:normal;word-spacing:normal;text-transform:none;writing-mode:lr-tb;direction:ltr;text-orientation:mixed;dominant-baseline:auto;baseline-shift:baseline;text-anchor:start;white-space:normal;shape-padding:0;clip-rule:nonzero;display:inline;overflow:visible;visibility:visible;opacity:1;isolation:auto;mix-blend-mode:normal;color-interpolation:sRGB;color-interpolation-filters:linearRGB;solid-color:#000000;solid-opacity:1;vector-effect:none;fill:#ffffff;fill-opacity:1;fill-rule:nonzero;stroke:none;stroke-width:5.4637599;stroke-linecap:round;stroke-linejoin:round;stroke-miterlimit:4;stroke-dasharray:none;stroke-dashoffset:0;stroke-opacity:1;marker:none;color-rendering:auto;image-rendering:auto;shape-rendering:auto;text-rendering:auto;enable-background:accumulate"
     d="M 15.121094 0 C 6.7930531 0 1.1842379e-15 6.7891485 0 15.117188 L 0 19.775391 C 0 28.103389 6.7930931 34.890625 15.121094 34.890625 L 18.523438 34.890625 L 18.523438 271.20312 C 18.523588 272.71184 19.747149 273.9354 21.255859 273.93555 L 140.27734 273.93555 C 141.83912 289.78556 155.24239 302.22461 171.49414 302.22461 C 187.74584 302.22461 201.15238 289.78556 202.71484 273.93555 L 319.66992 273.93555 C 321.17863 273.9354 322.40219 272.71184 322.40234 271.20312 L 322.40234 34.890625 L 325.87109 34.890625 C 334.19914 34.890625 340.99219 28.103389 340.99219 19.775391 L 340.99219 15.117188 C 340.99219 6.7891485 334.19914 0 325.87109 0 L 15.121094 0 z M 15.121094 5.4648438 L 325.87109 5.4648438 C 331.26674 5.4648438 335.5293 9.7215706 335.5293 15.117188 L 335.5293 19.775391 C 335.5293 25.170969 331.26674 29.427734 325.87109 29.427734 L 319.66992 29.427734 L 21.255859 29.427734 L 15.121094 29.427734 C 9.7254734 29.427734 5.4628906 25.170969 5.4628906 19.775391 L 5.4628906 15.117188 C 5.4628906 9.7215706 9.7254734 5.4648436 15.121094 5.4648438 z M 198.25195 77.498047 C 198.60507 77.498047 199.24008 77.709069 200.1582 78.132812 C 201.07631 78.556556 202.17019 79.104467 203.44141 79.775391 C 204.71262 80.446315 205.87814 81.098764 206.9375 81.734375 C 207.99686 82.369988 209.1101 83.024388 210.27539 83.695312 C 211.44068 84.366237 212.12799 84.770863 212.33984 84.912109 C 213.46982 85.618344 214.03516 86.572838 214.03516 87.773438 C 214.03516 88.267805 214.00039 88.585317 213.92969 88.726562 C 206.51422 102.0038 195.3915 121.98983 180.56055 148.68555 C 165.72959 175.38126 154.57009 195.4041 147.08398 208.75195 L 141.89258 218.17969 C 141.18635 219.30967 140.19897 219.875 138.92773 219.875 C 138.08025 219.875 133.34849 217.40264 124.73242 212.45898 C 123.60244 211.75275 123.03711 210.76341 123.03711 209.49219 C 123.03711 208.6447 124.58982 205.57411 127.69727 200.27734 C 117.59809 195.68681 108.29336 189.57657 99.783203 181.94922 C 91.273065 174.32187 83.912129 165.67152 77.697266 155.99609 C 76.284791 153.80676 75.578125 151.36925 75.578125 148.68555 C 75.578125 146.00185 76.284791 143.56628 77.697266 141.37695 C 88.502671 124.78041 101.91962 111.67902 117.95117 102.07422 C 133.98272 92.469413 151.49834 87.667969 170.49609 87.667969 C 176.78158 87.667969 183.13771 88.26815 189.56445 89.46875 L 195.28516 79.191406 C 195.99138 78.061426 196.98074 77.498047 198.25195 77.498047 z M 170.49609 102.92188 C 161.66813 102.92188 154.09423 106.08153 147.77344 112.40234 C 141.45262 118.72315 138.29102 126.299 138.29102 135.12695 C 138.29102 136.53943 138.78667 137.73979 139.77539 138.72852 C 140.76414 139.71725 141.9645 140.21094 143.37695 140.21094 C 144.78943 140.21094 145.98977 139.71725 146.97852 138.72852 C 147.96724 137.73979 148.46094 136.53943 148.46094 135.12695 C 148.46094 129.05332 150.61579 123.86077 154.92383 119.55273 C 159.23187 115.2447 164.42246 113.0918 170.49609 113.0918 C 171.90857 113.0918 173.10893 112.5981 174.09766 111.60938 C 175.08638 110.62064 175.58008 109.41833 175.58008 108.00586 C 175.58008 106.59339 175.08638 105.39303 174.09766 104.4043 C 173.10893 103.41557 171.90857 102.92187 170.49609 102.92188 z M 228.6543 105.67578 C 235.36354 110.19569 241.80872 115.59927 247.98828 121.88477 C 254.16783 128.17027 259.26937 134.66771 263.29492 141.37695 C 264.7074 143.77816 265.41406 146.21373 265.41406 148.68555 C 265.41406 151.15737 264.7074 153.59489 263.29492 155.99609 C 260.54061 160.516 256.6917 165.63496 251.74805 171.35547 C 241.1545 183.50272 228.88368 192.93138 214.93555 199.64062 C 200.98739 206.34987 186.17453 209.70508 170.49609 209.70508 L 178.33594 195.7207 C 193.30813 194.44948 207.1665 189.61319 219.91406 181.20898 C 232.66163 172.80478 243.31003 161.96278 251.85547 148.68555 C 243.73376 136.04392 233.7746 125.66273 221.98047 117.54102 L 228.6543 105.67578 z M 129.5 111.29102 C 113.32719 119.55398 99.873463 132.01838 89.138672 148.68555 C 100.93282 166.90643 116.01092 180.14915 134.37305 188.41211 L 142.63477 173.47461 C 136.49052 169.02532 131.68907 163.41072 128.22852 156.63086 C 124.76796 149.851 123.03711 142.68368 123.03711 135.12695 C 123.03711 126.5815 125.19196 118.63587 129.5 111.29102 z M 217.10742 126.22852 C 217.67241 129.40658 217.95508 132.37263 217.95508 135.12695 C 217.95508 144.94363 215.1652 153.89407 209.58594 161.98047 C 204.00668 170.06687 196.62639 175.87507 187.44531 179.40625 L 217.10742 126.22852 z M 146.53711 273.93555 L 196.45508 273.93555 C 194.93632 286.39382 184.37367 295.99414 171.49414 295.99414 C 158.61456 295.99414 148.05516 286.39382 146.53711 273.93555 z "
     transform="scale(0.26458333)"
     id="rect4550" />
</svg>
