<?xml version="1.0" encoding="UTF-8" standalone="no"?>
<svg
   xmlns:svg="http://www.w3.org/2000/svg"
   xmlns="http://www.w3.org/2000/svg"
   width="100mm"
   height="100mm"
   viewBox="0 0 100 99.999997"
   version="1.1"
   id="svg8">
  <defs
     id="defs8" />
  <g
     id="layer1"
     transform="translate(-36.097241,-79.85368)">
    <path
       id="rect4550"
       d="m 45.252186,89.871882 c -2.203458,0 -4.000789,1.796293 -4.000791,3.999753 v 1.23249 c 0,2.20345 1.797333,3.99924 4.000791,3.99924 h 0.371036 v 62.524355 c 3.9e-5,0.39918 0.323773,0.72291 0.722952,0.72295 h 31.491104 c 0.413229,4.19365 3.959503,7.48481 8.259445,7.48481 4.299929,0 7.847076,-3.29116 8.260477,-7.48481 h 30.94436 c 0.39918,-4e-5 0.72291,-0.32377 0.72295,-0.72295 V 99.103365 h 0.91778 c 2.20346,0 4.00079,-1.79579 4.00079,-3.99924 v -1.23249 c 0,-2.20346 -1.79733,-3.999753 -4.00079,-3.999753 z m 0,1.445903 h 81.690104 c 1.4276,0 2.5554,1.12626 2.5554,2.55385 v 1.23249 c 0,1.42758 -1.1278,2.55385 -2.5554,2.55385 h -1.64073 -78.955386 -1.093988 c -1.427591,0 -2.555399,-1.12627 -2.555399,-2.55385 v -1.23249 c 0,-1.42759 1.127808,-2.55385 2.555399,-2.55385 z m 43.84487,22.973285 c 2.560338,0 4.569285,1.06234 6.026504,3.18688 1.457214,2.12454 2.185914,5.03933 2.185914,8.74366 0,3.73156 -0.762408,6.673 -2.287715,8.82478 -1.511694,2.13816 -3.568449,3.20704 -6.169649,3.20704 -1.171229,0 -2.219982,-0.19021 -3.146063,-0.57154 -0.926079,-0.39495 -1.844987,-1.09647 -2.757453,-2.10427 h -0.367938 c 0.245134,1.62065 0.367938,2.62813 0.367938,3.02308 v 9.29504 h -7.987626 v -33.19591 h 6.496244 l 1.123444,2.94194 h 0.367938 c 1.484461,-2.2335 3.533643,-3.3507 6.148462,-3.3507 z m -2.920752,6.27145 c -1.17122,0 -1.99554,0.42222 -2.4722,1.26659 -0.463042,0.83075 -0.714651,2.07024 -0.75551,3.71812 v 0.63355 c 0,1.98835 0.265194,3.42511 0.796332,4.31034 0.531135,0.88522 1.369039,1.32756 2.513026,1.32756 1.021413,0 1.763697,-0.43581 2.226739,-1.30741 0.463039,-0.88522 0.694531,-2.34261 0.694531,-4.37183 0,-1.98835 -0.231492,-3.41152 -0.694531,-4.26951 -0.463042,-0.8716 -1.232493,-1.30741 -2.308387,-1.30741 z m -6.682798,41.78815 h 13.207463 c -0.401838,3.29625 -3.196537,5.83633 -6.604246,5.83633 -3.407722,0 -6.201566,-2.54008 -6.603217,-5.83633 z"
       style="color:#000000;font-style:normal;font-variant:normal;font-weight:normal;font-stretch:normal;font-size:medium;line-height:normal;font-family:sans-serif;font-variant-ligatures:normal;font-variant-position:normal;font-variant-caps:normal;font-variant-numeric:normal;font-variant-alternates:normal;font-feature-settings:normal;text-indent:0;text-align:start;text-decoration:none;text-decoration-line:none;text-decoration-style:solid;text-decoration-color:#000000;letter-spacing:normal;word-spacing:normal;text-transform:none;writing-mode:lr-tb;direction:ltr;text-orientation:mixed;dominant-baseline:auto;baseline-shift:baseline;text-anchor:start;white-space:normal;shape-padding:0;clip-rule:nonzero;display:inline;overflow:visible;visibility:visible;opacity:1;isolation:auto;mix-blend-mode:normal;color-interpolation:sRGB;color-interpolation-filters:linearRGB;solid-color:#000000;solid-opacity:1;vector-effect:none;fill:#ffffff;fill-opacity:1;fill-rule:nonzero;stroke:none;stroke-width:1.44561982;stroke-linecap:round;stroke-linejoin:round;stroke-miterlimit:4;stroke-dasharray:none;stroke-dashoffset:0;stroke-opacity:1;marker:none;color-rendering:auto;image-rendering:auto;shape-rendering:auto;text-rendering:auto;enable-background:accumulate" />
  </g>
</svg>
