<?xml version="1.0" encoding="UTF-8" standalone="no"?>
<svg
   xmlns:svg="http://www.w3.org/2000/svg"
   xmlns="http://www.w3.org/2000/svg"
   id="svg8"
   version="1.1"
   viewBox="0 0 263.31104 119.92635"
   height="119.92635mm"
   width="263.31104mm">
  <defs
     id="defs4571" />
  <g
     transform="translate(50.712433,-79.908707)"
     id="layer1">
    <path
       id="rect4599"
       d="M -50.712433,79.908707 H 212.5986 V 199.83506 H -50.712433 Z"
       style="color:#000000;display:inline;overflow:visible;visibility:visible;opacity:1;fill:#1c4a3b;fill-opacity:1;fill-rule:nonzero;stroke:none;stroke-width:1.7333498;stroke-linecap:round;stroke-linejoin:round;stroke-miterlimit:4;stroke-dasharray:none;stroke-dashoffset:0;stroke-opacity:1;marker:none;enable-background:accumulate" />
    <path
       id="rect4550"
       transform="matrix(0.26458333,0,0,0.26458333,-50.712433,79.908707)"
       d="m 446.51172,75.519531 c -8.32803,0 -15.12109,6.78915 -15.1211,15.117188 v 4.658203 c 0,8.327998 6.79336,15.115238 15.12139,15.115238 h 3.402 l 5e-5,236.3125 c 1.5e-4,1.50871 1.22371,2.73227 2.73242,2.73242 h 119.02149 c 1.56181,15.85001 14.96505,28.28906 31.2168,28.28906 16.2517,0 29.65824,-12.43905 31.2207,-28.28906 h 116.95508 c 1.50871,-1.5e-4 2.73227,-1.22371 2.73242,-2.73242 l 5e-5,-236.3125 h 3.469 c 8.32804,0 15.12079,-6.78724 15.12079,-15.115238 v -4.658203 c 0,-8.328038 -6.79305,-15.117188 -15.12109,-15.117188 z m 0,5.464844 h 310.75 c 5.39565,0 9.6582,4.256728 9.6582,9.652344 v 4.658203 c 0,5.395578 -4.26255,9.652348 -9.6582,9.652348 h -6.20117 -298.41407 -6.13476 c -5.39562,0 -9.6582,-4.25677 -9.6582,-9.652348 v -4.658203 c 0,-5.395616 4.26258,-9.652344 9.6582,-9.652344 z m 169.23633,95.296875 h 23.76757 v 94.58008 h -23.76757 z m -123.20899,11.91406 h 15.56055 v 13.79883 h 16.89844 v 17.80859 h -16.89844 v 26.80665 c 0,4.45745 2.14796,6.68554 6.44336,6.68554 3.20128,0 7.0308,-0.79072 11.48828,-2.37109 v 17.32422 c -3.20129,1.37776 -6.26011,2.35063 -9.17773,2.91797 -2.87711,0.60782 -6.26023,0.9121 -10.1504,0.9121 -7.98292,0 -13.7382,-1.94577 -17.26367,-5.83593 -3.52546,-3.93069 -5.28711,-9.94822 -5.28711,-18.05274 v -28.38672 h -8.32812 v -9.66406 l 10.57617,-7.47656 z m -227.66797,12.58203 c -7.78034,0 -13.87991,3.32303 -18.29687,9.96875 h -1.09375 l -3.3418,-8.75195 h -19.33008 v 98.77344 h 23.76563 v -27.65625 c 0,-1.17516 -0.36434,-4.17392 -1.09375,-8.9961 h 1.09375 c 2.71501,2.99868 5.45149,5.08464 8.20703,6.25977 2.75554,1.13464 5.87443,1.70312 9.35937,1.70312 7.73982,0 13.85942,-3.18091 18.35743,-9.54296 4.53853,-6.40255 6.80859,-15.15658 6.80859,-26.25977 0,-11.02216 -2.16799,-19.69411 -6.50391,-26.01562 -4.33591,-6.32154 -10.31339,-9.48243 -17.93164,-9.48243 z m 79.50586,0 c -3.60651,0 -7.19377,1.13502 -10.75976,3.4043 -3.52547,2.22874 -6.28002,5.16741 -8.26563,8.81445 h -1.15625 l -3.70703,-11.00195 h -17.6875 v 68.86719 h 23.76563 v -33.85547 c 0,-4.4575 1.17508,-7.86258 3.52539,-10.21289 2.35031,-2.39083 6.11974,-3.58594 11.30664,-3.58594 3.44442,0 6.1389,0.2442 8.08398,0.73047 l 2.12696,-22.42969 -1.3379,-0.24414 c -1.86404,-0.32418 -3.82788,-0.48633 -5.89453,-0.48633 z m 47.77539,0 c -10.90057,0 -19.28828,3.12085 -25.16406,9.36133 -5.87577,6.19996 -8.81445,15.11416 -8.81445,26.74414 0,11.26529 3.1609,19.95727 9.48242,26.07617 6.36205,6.07839 15.2782,9.11914 26.74609,9.11914 5.51107,0 10.25144,-0.36435 14.22266,-1.09374 3.97121,-0.7294 7.82075,-2.0466 11.54883,-3.95118 v -17.08008 c -4.09278,1.90456 -7.90227,3.26181 -11.42774,4.07227 -3.48494,0.76992 -7.31445,1.1543 -11.48828,1.1543 -4.57905,0 -8.20441,-1.09499 -10.8789,-3.28321 -2.63397,-2.18822 -4.03322,-5.20701 -4.19532,-9.05664 h 42.48829 v -10.57617 c 0,-10.17116 -2.83661,-17.95034 -8.50977,-23.33984 -5.63264,-5.43005 -13.63598,-8.14649 -24.00977,-8.14649 z m 179.65039,0 c 8.83394,0 15.66221,2.18802 20.48438,6.56446 4.86271,4.37644 7.29297,10.49603 7.29297,18.35742 v 45.16211 h -16.47266 l -4.55859,-9.11719 h -0.48633 c -3.20129,3.97123 -6.46231,6.68571 -9.78516,8.14453 -3.32285,1.4588 -7.61878,2.18945 -12.88672,2.18945 -6.48359,0 -11.59028,-1.94577 -15.31835,-5.83593 -3.72808,-3.89017 -5.5918,-9.36118 -5.5918,-16.41211 0,-7.33458 2.55236,-12.78363 7.6582,-16.34961 5.10585,-3.60653 12.5026,-5.63239 22.1875,-6.07813 l 11.48828,-0.36523 v -0.97266 c 0,-5.67314 -2.79656,-8.50976 -8.38867,-8.50976 -5.0248,0 -11.40667,1.70157 -19.14648,5.10547 l -6.86914,-15.68164 c 8.02347,-4.13332 18.15476,-6.20118 30.39257,-6.20118 z m 77.86329,1.2168 h 26.98828 l 10.45508,19.32813 10.69726,-19.32813 h 27.04883 l -21.57813,33.73438 22.42969,35.13281 h -26.98828 l -11.60937,-20.90821 -11.54883,20.90821 h -27.04883 l 22.18555,-35.13281 z m -256.66211,14.95313 c 3.03919,0 5.44942,0.9929 7.23242,2.97851 1.82353,1.98561 2.77639,4.63808 2.85742,7.96094 h -20.42383 c 0.32418,-3.76862 1.41916,-6.52316 3.2832,-8.26563 1.90457,-1.783 4.25473,-2.67382 7.05079,-2.67382 z m -136.82422,2.49218 c 3.20128,0 5.48942,1.29521 6.86719,3.88867 1.37776,2.55292 2.0664,6.78879 2.0664,12.70508 0,6.03787 -0.68864,10.37386 -2.0664,13.00782 -1.37777,2.59346 -3.58581,3.88867 -6.625,3.88867 -3.4039,0 -5.89619,-1.31524 -7.47657,-3.94922 -1.58038,-2.63398 -2.37109,-6.90988 -2.37109,-12.82617 v -1.88477 c 0.12157,-4.90323 0.87223,-8.59061 2.25,-11.0625 1.41829,-2.5124 3.87053,-3.76758 7.35547,-3.76758 z m 319.75586,20.66602 -5.47071,0.24219 c -7.82085,0.28364 -11.73047,3.16224 -11.73046,8.63281 0,4.21435 2.24808,6.32031 6.74609,6.32031 2.87709,0 5.32934,-0.91085 7.35547,-2.73437 2.06667,-1.82353 3.09961,-4.19371 3.09961,-7.11133 z m 1.99218,109.34961 h 49.91797 c -1.51876,12.45827 -12.0814,22.05859 -24.96093,22.05859 -12.87958,0 -23.43899,-9.60032 -24.95704,-22.05859 z"
       style="color:#000000;font-style:normal;font-variant:normal;font-weight:normal;font-stretch:normal;font-size:medium;line-height:normal;font-family:sans-serif;font-variant-ligatures:normal;font-variant-position:normal;font-variant-caps:normal;font-variant-numeric:normal;font-variant-alternates:normal;font-feature-settings:normal;text-indent:0;text-align:start;text-decoration:none;text-decoration-line:none;text-decoration-style:solid;text-decoration-color:#000000;letter-spacing:normal;word-spacing:normal;text-transform:none;writing-mode:lr-tb;direction:ltr;text-orientation:mixed;dominant-baseline:auto;baseline-shift:baseline;text-anchor:start;white-space:normal;shape-padding:0;clip-rule:nonzero;display:inline;overflow:visible;visibility:visible;opacity:1;isolation:auto;mix-blend-mode:normal;color-interpolation:sRGB;color-interpolation-filters:linearRGB;solid-color:#000000;solid-opacity:1;vector-effect:none;fill:#ffffff;fill-opacity:1;fill-rule:nonzero;stroke:none;stroke-width:5.4637599;stroke-linecap:round;stroke-linejoin:round;stroke-miterlimit:4;stroke-dasharray:none;stroke-dashoffset:0;stroke-opacity:1;marker:none;color-rendering:auto;image-rendering:auto;shape-rendering:auto;text-rendering:auto;enable-background:accumulate" />
  </g>
</svg>
