<?xml version="1.0" encoding="UTF-8"?>
<svg width="210" height="210" clip-rule="evenodd" fill-rule="evenodd" stroke-linejoin="round" stroke-miterlimit="2" version="1.1" viewBox="0 0 210 210" xmlns="http://www.w3.org/2000/svg"><path d="m0 0h166.62v209.4h-166.62z" fill="none"/><path d="m142.57 85.322-39.134 102.25-21.627-56.503 11.671-27.117 5.272-2.754 4.684 12.237 3.987-10.417zm-68.653 51.766-5.856-15.302 16.05-8.384zm-8.438-38.289 6.44-8.737 21.074 9.192-3.239 7.527-17.684 9.237zm0.855-5.07-5.586 7.578-4.602-12.022zm31.872 0.744 1.328 3.469-3.638 1.9zm51.245-20.472-1.81 4.727-35.147 17.693 11.083-28.956zm-54.575-2.896 8.813 23.025-20.48-8.934 10.038-13.617zm-29.562 12.51 21.286-6.187-8.976 12.177-12.026-5.245zm-9.306-4.628 10.792-5.479-0.16 1.368-2.888 4.032-7.353 1.1zm26.252-8.269 1.614 4.216-15.331 2.293 0.328-2.793 3.055-4.265 0.526-0.267zm-37.169 6.178 0.874 0.233 7.642-4.924-5.787-0.911zm10.725-10.182 4.407-0.849-0.915 7.801h-0.831zm68.478-19.343 40.616-33.94-21.555 56.317-15.101-3.814zm-57.873 22.535 1.726-0.19 1.524-6.389-4.085 4.057zm54.546-23.025 3.544 16.612-9.03-2.281zm-44.486 17.924 0.977 2.553-4.853-0.586zm9.79-4.372 2.076 5.424-1.165 0.761-7.121-1.122 1.786-3.668 2.199-1.49zm-36.845-2.569-3.04 4.243 3.577 2.232 0.783-6.672zm4.784-1.793 8.194 2.085-0.889 0.574-6.05 0.62zm-6.703-4.855 3.246 0.867-2.356 1.459z" stroke="#000"/></svg>
