<svg style="clip-rule:evenodd;fill-rule:evenodd;stroke-linejoin:round;stroke-miterlimit:2" version="1.1" viewBox="0 0 2240 924" xml:space="preserve" xmlns="http://www.w3.org/2000/svg">
    <rect x=".0040687" y=".0019617" width="2240" height="924" style="fill:none;stroke-width:.50405"/><g transform="matrix(392.94 105.29 -105.29 392.94 473.34 623.2)" style="fill:#fff">
                <path d="m0.259-0.128c5e-3 2e-3 0.01 3e-3 0.015 3e-3 6e-3 1e-3 0.011 1e-3 0.016 1e-3 0.013 0 0.026-2e-3 0.038-5e-3 0.012-4e-3 0.023-9e-3 0.034-0.016 0.01-6e-3 0.02-0.015 0.028-0.024 8e-3 -0.01 0.015-0.02 0.02-0.032l0.098 0.098c-0.013 0.018-0.027 0.033-0.043 0.047s-0.033 0.026-0.052 0.036-0.039 0.017-0.059 0.022c-0.021 5e-3 -0.042 8e-3 -0.064 8e-3 -0.037 0-0.071-7e-3 -0.104-0.021-0.032-0.013-0.06-0.032-0.085-0.057-0.024-0.024-0.043-0.053-0.057-0.087s-0.021-0.071-0.021-0.111c0-0.041 7e-3 -0.079 0.021-0.113 0.014-0.035 0.033-0.064 0.057-0.088 0.025-0.024 0.053-0.043 0.085-0.056 0.033-0.013 0.067-0.02 0.104-0.02 0.022 0 0.043 3e-3 0.064 8e-3s0.041 0.013 0.059 0.022c0.019 0.01 0.037 0.022 0.053 0.036s0.03 0.03 0.043 0.048zm0.068-0.275c-6e-3 -2e-3 -0.012-4e-3 -0.018-4e-3 -6e-3 -1e-3 -0.012-1e-3 -0.019-1e-3 -0.018 0-0.035 3e-3 -0.051 0.01-0.017 6e-3 -0.031 0.016-0.042 0.028-0.012 0.013-0.022 0.028-0.029 0.045-6e-3 0.017-0.01 0.037-0.01 0.059 0 5e-3 0 0.01 1e-3 0.016 0 7e-3 1e-3 0.013 2e-3 0.019 2e-3 7e-3 3e-3 0.013 5e-3 0.019 1e-3 5e-3 3e-3 0.011 6e-3 0.015z" style="fill-rule:nonzero;fill:#fff"/>
            </g><path d="m570.77 137.77a2.0002 2.0002 0 0 0-1.2402 0.47071l-82.51 69.781a2.0002 2.0002 0 0 0 1.0195 3.5078l53 7.3008a2.0002 2.0002 0 0 0 2.1406-1.2676l29.51-77.08a2.0002 2.0002 0 0 0-1.9199-2.7129zm-82.672 83.068a2.0002 2.0002 0 0 0-1.3281 0.47266l-27.25 23.041a2.0002 2.0002 0 0 0-0.40039 2.5898l48.76 77.58a2.0002 2.0002 0 0 0 3.5605-0.34766l35.51-92.771a2.0002 2.0002 0 0 0-1.5957-2.6953l-57.02-7.8496a2.0002 2.0002 0 0 0-0.23632-0.01954zm-48.688 20.609a2.0002 2.0002 0 0 0-1.2891 0.47461l-32.361 27.369a2.0002 2.0002 0 0 0-0.57618 0.8125l-42.68 111.51a2.0002 2.0002 0 0 0 2.5059 2.6094l119.4-40.25a2.0002 2.0002 0 0 0 1.2305-1.1797l6.6699-17.441a2.0002 2.0002 0 0 0-0.17578-1.7774l-51.029-81.191a2.0002 2.0002 0 0 0-1.6953-0.93555zm46.059 111.11a2.0002 2.0002 0 0 0-0.58594 0.10351l-119.4 40.25a2.0002 2.0002 0 0 0-1.2285 1.1816l-2.9492 7.709a2.0002 2.0002 0 0 0 2.0078 2.7109l106.87-7.5312a2.0002 2.0002 0 0 0 1.7285-1.2793l15.479-40.43a2.0002 2.0002 0 0 0-1.9199-2.7148zm-20.238 51.637v0.0039a2.0002 2.0002 0 0 0-0.08985 0l-106.87 7.5293a2.0002 2.0002 0 0 0-1.7285 1.2812l-26.389 68.961-78.846 64.293a2.0002 2.0002 0 0 0-0.60547 2.2656l79.262 207.07a2.0002 2.0002 0 0 0 3.7344 0l133.45-348.69a2.0002 2.0002 0 0 0-1.9199-2.7129z" style="clip-rule:nonzero;color-rendering:auto;color:#000000;dominant-baseline:auto;fill-opacity:.20766;fill-rule:nonzero;fill:#fff;font-feature-settings:normal;font-variant-alternates:normal;font-variant-caps:normal;font-variant-east-asian:normal;font-variant-ligatures:normal;font-variant-numeric:normal;font-variant-position:normal;font-variation-settings:normal;image-rendering:auto;inline-size:0;isolation:auto;mix-blend-mode:normal;shape-margin:0;shape-padding:0;shape-rendering:auto;solid-color:#000000;stop-color:#000000;text-decoration-color:#000000;text-decoration-line:none;text-decoration-style:solid;text-indent:0;text-orientation:mixed;text-transform:none;white-space:normal"/><g transform="matrix(-6.07 0 0 6.07 4847.4 -4823.5)" style="fill:#fff;stroke:#fff">
                <path d="m767.95 857.28-23.628 61.733-13.057-34.114 7.046-16.373 3.183-1.662 2.828 7.388 2.407-6.29zm-41.45 31.254-3.536-9.238 9.69-5.062zm-5.094-23.117 3.888-5.275 12.723 5.55-1.956 4.545-10.676 5.576zm0.516-3.061-3.373 4.576-2.778-7.259zm19.243 0.45 0.801 2.094-2.196 1.147zm30.939-12.361-1.093 2.854-21.22 10.683 6.691-17.483zm-32.95-1.748 5.321 13.901-12.365-5.393 6.06-8.222zm-17.849 7.553 12.852-3.735-5.419 7.352-7.261-3.168zm-5.618-2.794 6.516-3.308-0.097 0.826-1.744 2.434-4.439 0.664zm15.85-4.993 0.975 2.546-9.257 1.384 0.198-1.686 1.845-2.575 0.317-0.162zm-22.441 3.73 0.527 0.141 4.615-2.973-3.495-0.55zm6.475-6.147 2.661-0.513-0.553 4.71h-0.501zm41.344-11.679 24.523-20.491-13.014 34.002-9.118-2.303zm-34.941 13.606 1.042-0.115 0.92-3.857-2.466 2.449zm32.932-13.902 2.14 10.03-5.451-1.377zm-26.858 10.822 0.59 1.542-2.93-0.354zm5.91-2.64 1.254 3.276-0.704 0.459-4.299-0.678 1.079-2.214 1.327-0.9zm-22.245-1.55-1.835 2.561 2.159 1.348 0.473-4.029zm2.888-1.083 4.948 1.259-0.537 0.346-3.653 0.375zm-4.047-2.931 1.96 0.523-1.422 0.881z" style="fill:#fff;stroke-width:.75px;stroke:#fff"/>
            </g><g transform="matrix(406.81 0 0 406.81 712.25 655.05)" style="fill:#fff">
                <path d="m0.184 0h-0.133v-0.523h0.032l0.044 0.051c0.021-0.02 0.046-0.035 0.073-0.045 0.027-0.011 0.056-0.016 0.085-0.016 0.032 0 0.062 6e-3 0.09 0.018 0.029 0.012 0.054 0.029 0.075 0.05 0.021 0.022 0.038 0.047 0.05 0.075 0.012 0.029 0.018 0.059 0.018 0.091v0.299h-0.133v-0.299c0-0.014-3e-3 -0.026-8e-3 -0.039-5e-3 -0.012-0.012-0.023-0.022-0.032-9e-3 -9e-3 -0.019-0.016-0.031-0.021s-0.025-8e-3 -0.039-8e-3 -0.027 3e-3 -0.039 8e-3c-0.013 5e-3 -0.024 0.012-0.033 0.021s-0.016 0.02-0.021 0.032c-5e-3 0.013-8e-3 0.025-8e-3 0.039z" style="fill-rule:nonzero;fill:#fff"/>
            </g><g transform="matrix(406.81 0 0 406.81 939.3 655.05)" style="fill:#fff">
                <path d="m0.435-0.061c-0.011 0.01-0.022 0.019-0.034 0.028-0.013 8e-3 -0.025 0.016-0.039 0.022-0.013 6e-3 -0.027 0.011-0.041 0.015s-0.029 6e-3 -0.043 6e-3c-0.032 0-0.063-6e-3 -0.091-0.017-0.028-0.012-0.053-0.028-0.074-0.049-0.022-0.021-0.039-0.046-0.051-0.077-0.012-0.03-0.018-0.063-0.018-0.101v-0.289h0.133v0.289c0 0.018 2e-3 0.033 8e-3 0.047 5e-3 0.014 0.012 0.026 0.022 0.035 9e-3 0.01 0.019 0.017 0.032 0.022 0.012 5e-3 0.025 7e-3 0.039 7e-3s0.026-3e-3 0.039-0.01c0.012-6e-3 0.023-0.014 0.032-0.025 9e-3 -0.01 0.016-0.022 0.021-0.035s8e-3 -0.027 8e-3 -0.041v-0.289h0.133v0.523h-0.032z" style="fill-rule:nonzero;fill:#fff"/>
            </g><g transform="matrix(392.94 105.29 -105.29 392.94 1141.5 623.37)" style="fill:#fff">
                <path d="m0.259-0.128c5e-3 2e-3 0.01 3e-3 0.015 3e-3 6e-3 1e-3 0.011 1e-3 0.016 1e-3 0.013 0 0.026-2e-3 0.038-5e-3 0.012-4e-3 0.023-9e-3 0.034-0.016 0.01-6e-3 0.02-0.015 0.028-0.024 8e-3 -0.01 0.015-0.02 0.02-0.032l0.098 0.098c-0.013 0.018-0.027 0.033-0.043 0.047s-0.033 0.026-0.052 0.036-0.039 0.017-0.059 0.022c-0.021 5e-3 -0.042 8e-3 -0.064 8e-3 -0.037 0-0.071-7e-3 -0.104-0.021-0.032-0.013-0.06-0.032-0.085-0.057-0.024-0.024-0.043-0.053-0.057-0.087s-0.021-0.071-0.021-0.111c0-0.041 7e-3 -0.079 0.021-0.113 0.014-0.035 0.033-0.064 0.057-0.088 0.025-0.024 0.053-0.043 0.085-0.056 0.033-0.013 0.067-0.02 0.104-0.02 0.022 0 0.043 3e-3 0.064 8e-3s0.041 0.013 0.059 0.022c0.019 0.01 0.037 0.022 0.053 0.036s0.03 0.03 0.043 0.048zm0.068-0.275c-6e-3 -2e-3 -0.012-4e-3 -0.018-4e-3 -6e-3 -1e-3 -0.012-1e-3 -0.019-1e-3 -0.018 0-0.035 3e-3 -0.051 0.01-0.017 6e-3 -0.031 0.016-0.042 0.028-0.012 0.013-0.022 0.028-0.029 0.045-6e-3 0.017-0.01 0.037-0.01 0.059 0 5e-3 0 0.01 1e-3 0.016 0 7e-3 1e-3 0.013 2e-3 0.019 2e-3 7e-3 3e-3 0.013 5e-3 0.019 1e-3 5e-3 3e-3 0.011 6e-3 0.015z" style="fill-rule:nonzero;fill:#fff"/>
            </g><g transform="matrix(1 0 0 1 -3841 -1393)" style="fill:#fff">
                <path d="m5243.1 1766.7 15.16-8.22 35.66 15.27 3.81 4.4v269.87h-54.63zm75.96-50.97v33.96l-1.38-0.59-19.19-22.21zm-42.66 41.98 25.22 10.8-14.39-16.67zm-18.83-12.9-10.47 5.67v-10.15zm3.87-42.23 27.78 32.17-12.84 6.96-14.94-6.4zm57.95-2.56-26.74 6.61-7.92-40.93 30.16 15.03z" style="fill-rule:nonzero;fill:#fff"/>
            </g><g transform="matrix(392.94 105.29 -105.29 392.94 1449 623.37)" style="fill:#fff">
                <path d="m0.259-0.128c5e-3 2e-3 0.01 3e-3 0.015 3e-3 6e-3 1e-3 0.011 1e-3 0.016 1e-3 0.013 0 0.026-2e-3 0.038-5e-3 0.012-4e-3 0.023-9e-3 0.034-0.016 0.01-6e-3 0.02-0.015 0.028-0.024 8e-3 -0.01 0.015-0.02 0.02-0.032l0.098 0.098c-0.013 0.018-0.027 0.033-0.043 0.047s-0.033 0.026-0.052 0.036-0.039 0.017-0.059 0.022c-0.021 5e-3 -0.042 8e-3 -0.064 8e-3 -0.037 0-0.071-7e-3 -0.104-0.021-0.032-0.013-0.06-0.032-0.085-0.057-0.024-0.024-0.043-0.053-0.057-0.087s-0.021-0.071-0.021-0.111c0-0.041 7e-3 -0.079 0.021-0.113 0.014-0.035 0.033-0.064 0.057-0.088 0.025-0.024 0.053-0.043 0.085-0.056 0.033-0.013 0.067-0.02 0.104-0.02 0.022 0 0.043 3e-3 0.064 8e-3s0.041 0.013 0.059 0.022c0.019 0.01 0.037 0.022 0.053 0.036s0.03 0.03 0.043 0.048zm0.068-0.275c-6e-3 -2e-3 -0.012-4e-3 -0.018-4e-3 -6e-3 -1e-3 -0.012-1e-3 -0.019-1e-3 -0.018 0-0.035 3e-3 -0.051 0.01-0.017 6e-3 -0.031 0.016-0.042 0.028-0.012 0.013-0.022 0.028-0.029 0.045-6e-3 0.017-0.01 0.037-0.01 0.059 0 5e-3 0 0.01 1e-3 0.016 0 7e-3 1e-3 0.013 2e-3 0.019 2e-3 7e-3 3e-3 0.013 5e-3 0.019 1e-3 5e-3 3e-3 0.011 6e-3 0.015z" style="fill-rule:nonzero;fill:#fff"/>
            </g><g transform="matrix(406.81 0 0 406.81 1690.9 655.05)" style="fill:#fff">
                <path d="m0.338 0h-0.305v-0.133h0.305c9e-3 0 0.017-3e-3 0.023-0.01 7e-3 -6e-3 0.01-0.014 0.01-0.023s-3e-3 -0.016-0.01-0.019c-6e-3 -3e-3 -0.014-4e-3 -0.023-4e-3h-0.139c-0.023 0-0.045-4e-3 -0.065-0.013s-0.037-0.021-0.052-0.036-0.027-0.033-0.036-0.053c-8e-3 -0.02-0.013-0.042-0.013-0.065s5e-3 -0.045 0.013-0.065c9e-3 -0.02 0.021-0.038 0.036-0.053s0.032-0.026 0.052-0.035 0.042-0.013 0.065-0.013h0.27v0.133h-0.27c-9e-3 0-0.017 3e-3 -0.023 0.01-7e-3 6e-3 -0.01 0.014-0.01 0.023s3e-3 0.018 0.01 0.024c6e-3 7e-3 0.014 0.01 0.023 0.01h0.139c0.023 0 0.044 4e-3 0.064 0.012 0.021 7e-3 0.038 0.018 0.053 0.032 0.015 0.013 0.027 0.03 0.036 0.049s0.013 0.04 0.013 0.063-4e-3 0.045-0.013 0.065-0.021 0.037-0.036 0.052c-0.015 0.016-0.032 0.027-0.053 0.036-0.02 9e-3 -0.041 0.013-0.064 0.013z" style="fill-rule:nonzero;fill:#fff"/>
            </g><g transform="matrix(406.81 0 0 406.81 1904.1 655.05)" style="fill:#fff">
                <path d="m0.338 0h-0.305v-0.133h0.305c9e-3 0 0.017-3e-3 0.023-0.01 7e-3 -6e-3 0.01-0.014 0.01-0.023s-3e-3 -0.016-0.01-0.019c-6e-3 -3e-3 -0.014-4e-3 -0.023-4e-3h-0.139c-0.023 0-0.045-4e-3 -0.065-0.013s-0.037-0.021-0.052-0.036-0.027-0.033-0.036-0.053c-8e-3 -0.02-0.013-0.042-0.013-0.065s5e-3 -0.045 0.013-0.065c9e-3 -0.02 0.021-0.038 0.036-0.053s0.032-0.026 0.052-0.035 0.042-0.013 0.065-0.013h0.27v0.133h-0.27c-9e-3 0-0.017 3e-3 -0.023 0.01-7e-3 6e-3 -0.01 0.014-0.01 0.023s3e-3 0.018 0.01 0.024c6e-3 7e-3 0.014 0.01 0.023 0.01h0.139c0.023 0 0.044 4e-3 0.064 0.012 0.021 7e-3 0.038 0.018 0.053 0.032 0.015 0.013 0.027 0.03 0.036 0.049s0.013 0.04 0.013 0.063-4e-3 0.045-0.013 0.065-0.021 0.037-0.036 0.052c-0.015 0.016-0.032 0.027-0.053 0.036-0.02 9e-3 -0.041 0.013-0.064 0.013z" style="fill-rule:nonzero;fill:#fff"/>
            </g><g transform="matrix(.53704 -1.5741 1.9299 .6584 -5222.4 6239.4)" style="fill:#fff;stroke:#fff">
                <path d="m4560.9 1811.8 8.29 8.48-8.84-2.83-13.58-11.15zm-10.47-23.02 0.12 0.18c1.43 2.13 2.79 4.3 4.06 6.51h-18.37l7.52-10.45zm-23.58-17.65 1.46 16.63 8.09-11.25zm7.52-27.13 14.14 9.63v-6.42l-11.9-6.71zm5.4 16.26c1.02 0.87 2.02 1.76 3.01 2.66 3.32 3.06 6.45 6.31 9.38 9.77l-0.49 0.68-11.9-6.7zm-17.13-7.45c1.65 1.11 3.28 2.27 4.87 3.47l0.96 2.03v6.1l-9.74-5.49zm-10.91-17.75c1.87 0.9 3.72 1.85 5.54 2.86 1.61 0.9 3.19 1.82 4.74 2.79l-7.96 12.44-7.43-8.16zm-28.38-2.31c0.74 0.18 1.49 0.38 2.24 0.58 5.22 1.4 10.27 3.15 15.14 5.27l-4.35 8.45z" style="fill-rule:nonzero;fill:#fff;stroke-linecap:round;stroke-width:1.19px;stroke:#fff"/>
            </g>
</svg>
