<?xml version="1.0" encoding="UTF-8"?>
<svg xmlns="http://www.w3.org/2000/svg" xmlns:xlink="http://www.w3.org/1999/xlink" width="933px" height="933px" viewBox="0 0 933 933" version="1.1">
<g id="surface1">
<path style=" stroke:none;fill-rule:nonzero;fill:rgb(100%,100%,100%);fill-opacity:1;" d="M 80.542969 93.566406 C 59.964844 93.566406 43.199219 110.332031 43.199219 130.910156 L 43.199219 142.429688 C 43.199219 162.984375 59.964844 179.773438 80.542969 179.773438 L 88.949219 179.773438 L 88.949219 763.652344 C 88.949219 767.390625 91.988281 770.40625 95.707031 770.40625 L 389.792969 770.40625 C 393.65625 809.570312 426.773438 840.308594 466.9375 840.308594 C 507.074219 840.308594 540.214844 809.570312 544.078125 770.40625 L 833.042969 770.40625 C 836.785156 770.40625 839.796875 767.390625 839.796875 763.652344 L 839.796875 179.773438 L 848.375 179.773438 C 868.953125 179.773438 885.742188 162.984375 885.742188 142.429688 L 885.742188 130.910156 C 885.742188 110.332031 868.953125 93.566406 848.375 93.566406 Z M 80.542969 107.050781 L 848.375 107.050781 C 861.714844 107.050781 872.234375 117.574219 872.234375 130.910156 L 872.234375 142.429688 C 872.234375 155.742188 861.714844 166.261719 848.375 166.261719 L 80.542969 166.261719 C 67.230469 166.261719 56.683594 155.742188 56.683594 142.429688 L 56.683594 130.910156 C 56.683594 117.574219 67.230469 107.050781 80.542969 107.050781 Z M 462.273438 364.113281 C 565.074219 364.113281 580.5 378.667969 580.5 478.042969 L 580.5 493.03125 L 417.734375 493.03125 C 417.734375 548.695312 418.609375 549.546875 464.847656 549.984375 C 529.089844 550.835938 572.363281 545.707031 572.363281 545.707031 L 572.363281 579.117188 C 572.363281 579.117188 529.089844 588.519531 458.433594 588.519531 C 354.371094 588.519531 343.65625 573.527344 343.65625 478.042969 C 343.65625 378.667969 359.496094 364.113281 462.273438 364.113281 Z M 462.273438 401.796875 C 421.597656 401.796875 417.734375 401.796875 417.734375 458.335938 L 506.394531 458.335938 C 506.394531 401.796875 503.40625 401.796875 462.273438 401.796875 Z M 405.273438 770.40625 L 528.601562 770.40625 C 524.859375 801.191406 498.765625 824.925781 466.9375 824.925781 C 435.109375 824.925781 409.011719 801.191406 405.273438 770.40625 Z M 405.273438 770.40625 "/>
</g>
</svg>