<?xml version="1.0" encoding="UTF-8" standalone="no"?>
<svg
   xmlns:svg="http://www.w3.org/2000/svg"
   xmlns="http://www.w3.org/2000/svg"
   id="svg8"
   version="1.1"
   viewBox="0 0 263.31104 119.92635"
   height="119.92635mm"
   width="263.31104mm">
  <g
     transform="translate(50.712433,-79.908707)"
     id="layer1">
    <path
       id="rect4599"
       d="M -50.712433,79.908707 H 212.5986 V 199.83506 H -50.712433 Z"
       style="color:#000000;display:inline;overflow:visible;visibility:visible;opacity:1;fill:#1c4a3b;fill-opacity:1;fill-rule:nonzero;stroke:none;stroke-width:1.7333498;stroke-linecap:round;stroke-linejoin:round;stroke-miterlimit:4;stroke-dasharray:none;stroke-dashoffset:0;stroke-opacity:1;marker:none;enable-background:accumulate" />
    <path
       id="rect4550"
       transform="matrix(0.26458333,0,0,0.26458333,-50.712433,79.908707)"
       d="M 448.51172 75.519531 C 440.18369 75.519531 433.39063 82.308681 433.39062 90.636719 L 433.39062 95.294922 C 433.39062 103.62292 440.18369 110.41016 448.51172 110.41016 L 449.91406 110.41016 L 449.91406 346.72266 C 449.91421 348.23137 451.13777 349.45493 452.64648 349.45508 L 571.66797 349.45508 C 573.22978 365.30509 586.63302 377.74414 602.88477 377.74414 C 619.13647 377.74414 632.54301 365.30509 634.10547 349.45508 L 751.06055 349.45508 C 752.56926 349.45493 753.79282 348.23137 753.79297 346.72266 L 753.79297 110.41016 L 757.26172 110.41016 C 765.58976 110.41016 772.38281 103.62292 772.38281 95.294922 L 772.38281 90.636719 C 772.38281 82.308681 765.58976 75.519531 757.26172 75.519531 L 448.51172 75.519531 z M 448.51172 80.984375 L 757.26172 80.984375 C 762.65737 80.984375 766.91992 85.241103 766.91992 90.636719 L 766.91992 95.294922 C 766.91992 100.6905 762.65737 104.94727 757.26172 104.94727 L 751.06055 104.94727 L 452.64648 104.94727 L 448.51172 104.94727 C 443.1161 104.94727 438.85352 100.6905 438.85352 95.294922 L 438.85352 90.636719 C 438.85352 85.241103 443.1161 80.984375 448.51172 80.984375 z M 615.74805 176.28125 L 639.51562 176.28125 L 639.51562 270.86133 L 615.74805 270.86133 L 615.74805 176.28125 z M 492.53906 188.19531 L 508.09961 188.19531 L 508.09961 201.99414 L 524.99805 201.99414 L 524.99805 219.80273 L 508.09961 219.80273 L 508.09961 246.60938 C 508.09961 251.06683 510.24757 253.29492 514.54297 253.29492 C 517.74425 253.29492 521.57377 252.5042 526.03125 250.92383 L 526.03125 268.24805 C 522.82996 269.62581 519.77114 270.59868 516.85352 271.16602 C 513.97641 271.77384 510.59329 272.07812 506.70312 272.07812 C 498.7202 272.07812 492.96492 270.13235 489.43945 266.24219 C 485.91399 262.3115 484.15234 256.29397 484.15234 248.18945 L 484.15234 219.80273 L 475.82422 219.80273 L 475.82422 210.13867 L 486.40039 202.66211 L 492.53906 188.19531 z M 264.87109 200.77734 C 257.09075 200.77734 250.99118 204.10037 246.57422 210.74609 L 245.48047 210.74609 L 242.13867 201.99414 L 222.80859 201.99414 L 222.80859 300.76758 L 246.57422 300.76758 L 246.57422 273.11133 C 246.57422 271.93617 246.20988 268.93741 245.48047 264.11523 L 246.57422 264.11523 C 249.28923 267.11391 252.02571 269.19987 254.78125 270.375 C 257.53679 271.50964 260.65568 272.07812 264.14062 272.07812 C 271.88044 272.07812 278.00004 268.89721 282.49805 262.53516 C 287.03658 256.13261 289.30664 247.37858 289.30664 236.27539 C 289.30664 225.25323 287.13865 216.58128 282.80273 210.25977 C 278.46682 203.93823 272.48934 200.77734 264.87109 200.77734 z M 344.37695 200.77734 C 340.77044 200.77734 337.18318 201.91236 333.61719 204.18164 C 330.09172 206.41038 327.33717 209.34905 325.35156 212.99609 L 324.19531 212.99609 L 320.48828 201.99414 L 302.80078 201.99414 L 302.80078 270.86133 L 326.56641 270.86133 L 326.56641 237.00586 C 326.56641 232.54836 327.74149 229.14328 330.0918 226.79297 C 332.44211 224.40214 336.21154 223.20703 341.39844 223.20703 C 344.84286 223.20703 347.53734 223.45123 349.48242 223.9375 L 351.60938 201.50781 L 350.27148 201.26367 C 348.40744 200.93949 346.4436 200.77734 344.37695 200.77734 z M 392.15234 200.77734 C 381.25177 200.77734 372.86406 203.89819 366.98828 210.13867 C 361.11251 216.33863 358.17383 225.25283 358.17383 236.88281 C 358.17383 248.1481 361.33473 256.84008 367.65625 262.95898 C 374.0183 269.03737 382.93445 272.07812 394.40234 272.07812 C 399.91341 272.07812 404.65378 271.71377 408.625 270.98438 C 412.59621 270.25498 416.44575 268.93778 420.17383 267.0332 L 420.17383 249.95312 C 416.08105 251.85768 412.27156 253.21493 408.74609 254.02539 C 405.26115 254.79531 401.43164 255.17969 397.25781 255.17969 C 392.67876 255.17969 389.0534 254.0847 386.37891 251.89648 C 383.74494 249.70826 382.34569 246.68947 382.18359 242.83984 L 424.67188 242.83984 L 424.67188 232.26367 C 424.67188 222.09251 421.83527 214.31333 416.16211 208.92383 C 410.52947 203.49378 402.52613 200.77734 392.15234 200.77734 z M 571.80273 200.77734 C 580.63667 200.77734 587.46494 202.96536 592.28711 207.3418 C 597.14982 211.71824 599.58008 217.83783 599.58008 225.69922 L 599.58008 270.86133 L 583.10742 270.86133 L 578.54883 261.74414 L 578.0625 261.74414 C 574.86121 265.71537 571.60019 268.42985 568.27734 269.88867 C 564.95449 271.34747 560.65856 272.07812 555.39062 272.07812 C 548.90703 272.07812 543.80034 270.13235 540.07227 266.24219 C 536.34419 262.35202 534.48047 256.88101 534.48047 249.83008 C 534.48047 242.4955 537.03283 237.04645 542.13867 233.48047 C 547.24452 229.87394 554.64127 227.84808 564.32617 227.40234 L 575.81445 227.03711 L 575.81445 226.06445 C 575.81445 220.39131 573.01789 217.55469 567.42578 217.55469 C 562.40098 217.55469 556.01911 219.25626 548.2793 222.66016 L 541.41016 206.97852 C 549.43363 202.8452 559.56492 200.77734 571.80273 200.77734 z M 649.66602 201.99414 L 676.6543 201.99414 L 687.10938 221.32227 L 697.80664 201.99414 L 724.85547 201.99414 L 703.27734 235.72852 L 725.70703 270.86133 L 698.71875 270.86133 L 687.10938 249.95312 L 675.56055 270.86133 L 648.51172 270.86133 L 670.69727 235.72852 L 649.66602 201.99414 z M 393.00391 216.94727 C 396.0431 216.94727 398.45333 217.94017 400.23633 219.92578 C 402.05986 221.91139 403.01272 224.56386 403.09375 227.88672 L 382.66992 227.88672 C 382.9941 224.1181 384.08908 221.36356 385.95312 219.62109 C 387.85769 217.83809 390.20785 216.94727 393.00391 216.94727 z M 256.17969 219.43945 C 259.38097 219.43945 261.66911 220.73466 263.04688 223.32812 C 264.42464 225.88104 265.11328 230.11691 265.11328 236.0332 C 265.11328 242.07107 264.42464 246.40706 263.04688 249.04102 C 261.66911 251.63448 259.46107 252.92969 256.42188 252.92969 C 253.01798 252.92969 250.52569 251.61445 248.94531 248.98047 C 247.36493 246.34649 246.57422 242.07059 246.57422 236.1543 L 246.57422 234.26953 C 246.69579 229.3663 247.44645 225.67892 248.82422 223.20703 C 250.24251 220.69463 252.69475 219.43945 256.17969 219.43945 z M 575.93555 240.10547 L 570.46484 240.34766 C 562.64399 240.6313 558.73437 243.5099 558.73438 248.98047 C 558.73438 253.19482 560.98246 255.30078 565.48047 255.30078 C 568.35756 255.30078 570.80981 254.38993 572.83594 252.56641 C 574.90261 250.74288 575.93555 248.3727 575.93555 245.45508 L 575.93555 240.10547 z M 577.92773 349.45508 L 627.8457 349.45508 C 626.32694 361.91335 615.7643 371.51367 602.88477 371.51367 C 590.00519 371.51367 579.44578 361.91335 577.92773 349.45508 z "
       style="color:#000000;font-style:normal;font-variant:normal;font-weight:normal;font-stretch:normal;font-size:medium;line-height:normal;font-family:sans-serif;font-variant-ligatures:normal;font-variant-position:normal;font-variant-caps:normal;font-variant-numeric:normal;font-variant-alternates:normal;font-feature-settings:normal;text-indent:0;text-align:start;text-decoration:none;text-decoration-line:none;text-decoration-style:solid;text-decoration-color:#000000;letter-spacing:normal;word-spacing:normal;text-transform:none;writing-mode:lr-tb;direction:ltr;text-orientation:mixed;dominant-baseline:auto;baseline-shift:baseline;text-anchor:start;white-space:normal;shape-padding:0;clip-rule:nonzero;display:inline;overflow:visible;visibility:visible;opacity:1;isolation:auto;mix-blend-mode:normal;color-interpolation:sRGB;color-interpolation-filters:linearRGB;solid-color:#000000;solid-opacity:1;vector-effect:none;fill:#ffffff;fill-opacity:1;fill-rule:nonzero;stroke:none;stroke-width:5.4637599;stroke-linecap:round;stroke-linejoin:round;stroke-miterlimit:4;stroke-dasharray:none;stroke-dashoffset:0;stroke-opacity:1;marker:none;color-rendering:auto;image-rendering:auto;shape-rendering:auto;text-rendering:auto;enable-background:accumulate" />
  </g>
</svg>
