<?xml version="1.0" encoding="UTF-8" standalone="no"?>
<svg
   xmlns:svg="http://www.w3.org/2000/svg"
   xmlns="http://www.w3.org/2000/svg"
   width="145.40817mm"
   height="79.963593mm"
   viewBox="0 0 145.40818 79.96359"
   version="1.1"
   id="svg8">
  <defs
     id="defs8" />
  <path
     id="rect4550"
     d="m 59.188114,0 c -2.20345,0 -4.00078,1.796296 -4.00079,3.999756 v 1.232483 c 0,2.203449 1.79734,3.99924 4.00079,3.99924 h 0.900207 v 62.524348 c 4e-5,0.399179 0.32377,0.722913 0.72295,0.722953 h 31.49111 c 0.41322,4.193648 3.9595,7.484813 8.259439,7.484813 4.29993,0 7.84708,-3.291165 8.26048,-7.484813 h 30.94436 c 0.39918,-4e-5 0.72291,-0.323774 0.72295,-0.722953 V 9.231479 h 0.91778 c 2.20346,0 4.00079,-1.795791 4.00079,-3.99924 V 3.999756 C 145.40818,1.796296 143.61085,0 141.40739,0 Z m 0,1.445907 h 82.219276 c 1.4276,0 2.5554,1.126259 2.5554,2.553849 v 1.232483 c 0,1.42758 -1.1278,2.55385 -2.5554,2.55385 h -1.64073 -78.955389 -1.623157 c -1.42759,0 -2.55539,-1.12627 -2.55539,-2.55385 V 3.999756 c 0,-1.42759 1.1278,-2.553849 2.55539,-2.553849 z m 44.777116,25.213964 h 6.2885 v 25.024313 h -6.2885 z m -32.599049,3.152262 h 4.11707 v 3.65094 h 4.47104 v 4.711856 h -4.47104 v 7.092593 c 0,1.179367 0.56831,1.768882 1.7048,1.768882 0.84701,0 1.86023,-0.209211 3.03961,-0.62735 v 4.583699 c -0.84701,0.364533 -1.65632,0.621938 -2.42827,0.772047 -0.76124,0.160819 -1.65636,0.241326 -2.68563,0.241326 -2.11215,0 -3.6349,-0.514818 -4.56768,-1.54409 -0.93278,-1.039995 -1.39888,-2.632133 -1.39888,-4.776454 v -7.510653 h -2.20348 V 35.61798 l 2.79827,-1.978173 z m -60.237145,3.328995 c -2.058548,0 -3.672393,0.879219 -4.841047,2.637565 H 5.998601 L 5.114417,33.463073 H 0 v 26.133806 h 6.287989 v -7.317383 c 0,-0.310928 -0.0964,-1.10435 -0.289388,-2.380218 h 0.289388 c 0.718347,0.793401 1.442374,1.345311 2.171444,1.656231 0.729069,0.300207 1.554276,0.450617 2.476333,0.450617 2.047827,0 3.666971,-0.841616 4.85707,-2.524908 1.200819,-1.694008 1.801439,-4.010179 1.801439,-6.947898 0,-2.916279 -0.573614,-5.210733 -1.720826,-6.883299 -1.147209,-1.672574 -2.728751,-2.508893 -4.744413,-2.508893 z m 21.035925,0 c -0.954222,0 -1.903351,0.300308 -2.846853,0.900721 -0.932781,0.589688 -1.661589,1.367211 -2.186948,2.332157 H 26.825236 L 25.844417,33.463073 H 21.1646 v 18.221111 h 6.287989 v -8.957593 c 0,-1.179381 0.310907,-2.080308 0.93276,-2.702161 0.621852,-0.632574 1.619181,-0.94878 2.991548,-0.94878 0.911336,0 1.624251,0.06461 2.138886,0.19327 l 0.562759,-5.934522 -0.353986,-0.06459 c -0.493194,-0.08578 -1.012794,-0.12868 -1.559595,-0.12868 z m 12.64057,0 c -2.88411,0 -5.103355,0.825725 -6.657989,2.476852 -1.554631,1.640406 -2.332156,3.998955 -2.332156,7.076054 0,2.980608 0.836321,5.280361 2.50889,6.89932 1.683292,1.60824 4.042355,2.412772 7.076565,2.412772 1.45814,0 2.71236,-0.0964 3.76308,-0.289385 1.05072,-0.192987 2.06924,-0.541497 3.05563,-1.045417 V 46.15222 c -1.08288,0.503915 -2.09081,0.86302 -3.02359,1.077455 -0.92206,0.203708 -1.93528,0.305408 -3.03961,0.305408 -1.21154,0 -2.17075,-0.289716 -2.87837,-0.868683 -0.69691,-0.578966 -1.06712,-1.377688 -1.11001,-2.396235 h 11.24169 v -2.798279 c 0,-2.691119 -0.75052,-4.74936 -2.25154,-6.175332 -1.49031,-1.436701 -3.60786,-2.155426 -6.35259,-2.155426 z m 47.5325,0 c 2.33731,0 4.14396,0.578914 5.41983,1.736847 1.28659,1.157933 1.92959,2.777074 1.92959,4.857067 v 11.949142 h -4.35839 l -1.20612,-2.412257 h -0.12868 c -0.84701,1.050721 -1.70982,1.768928 -2.58899,2.154907 -0.87917,0.385974 -2.0158,0.579292 -3.40961,0.579292 -1.71545,0 -3.0666,-0.514818 -4.05298,-1.54409 -0.98639,-1.029274 -1.4795,-2.476812 -1.4795,-4.34237 0,-1.940608 0.67531,-3.382336 2.02623,-4.325835 1.35093,-0.954227 3.30798,-1.490236 5.87045,-1.608172 l 3.0396,-0.09663 v -0.25735 c 0,-1.501018 -0.73992,-2.251541 -2.2195,-2.251541 -1.32948,0 -3.01801,0.450207 -5.06584,1.350823 l -1.81746,-4.149101 c 2.12288,-1.093608 4.80345,-1.640729 8.04137,-1.640729 z m 20.601329,0.321945 h 7.14065 l 2.76624,5.113901 2.83031,-5.113901 h 7.15667 l -5.70921,8.925555 5.93452,9.295556 h -7.14065 l -3.07164,-5.531964 -3.05563,5.531964 h -7.15667 l 5.86993,-9.295556 z m -67.908519,3.956349 c 0.80412,0 1.44183,0.262705 1.91358,0.788064 0.48248,0.52536 0.73459,1.227159 0.75603,2.106332 h -5.40381 c 0.0858,-0.997114 0.37549,-1.725919 0.86868,-2.186948 0.50392,-0.471752 1.12573,-0.707448 1.86552,-0.707448 z M 8.829436,38.078811 c 0.847006,0 1.452409,0.342691 1.816944,1.028878 0.364533,0.67546 0.546735,1.7962 0.546735,3.361552 0,1.59752 -0.182202,2.74475 -0.546735,3.441652 -0.364535,0.686187 -0.948745,1.028878 -1.752864,1.028878 -0.900615,0 -1.560034,-0.347991 -1.978176,-1.044898 C 6.497198,45.197966 6.287989,44.066634 6.287989,42.501282 V 42.002603 C 6.320159,40.70529 6.518767,39.729671 6.883302,39.07565 7.258558,38.410911 7.907379,38.078811 8.829436,38.078811 Z m 84.602075,5.467885 -1.44746,0.06408 c -2.06927,0.07505 -3.10369,0.836676 -3.10369,2.284098 0,1.115047 0.59481,1.672249 1.78491,1.672249 0.76123,0 1.41005,-0.240996 1.94613,-0.723469 0.54681,-0.482476 0.82011,-1.109586 0.82011,-1.88154 z m 0.52709,28.932084 h 13.207469 c -0.40184,3.29625 -3.19654,5.836335 -6.60425,5.836335 -3.407719,0 -6.201569,-2.540085 -6.603219,-5.836335 z"
     style="color:#000000;font-style:normal;font-variant:normal;font-weight:normal;font-stretch:normal;font-size:medium;line-height:normal;font-family:sans-serif;font-variant-ligatures:normal;font-variant-position:normal;font-variant-caps:normal;font-variant-numeric:normal;font-variant-alternates:normal;font-feature-settings:normal;text-indent:0;text-align:start;text-decoration:none;text-decoration-line:none;text-decoration-style:solid;text-decoration-color:#000000;letter-spacing:normal;word-spacing:normal;text-transform:none;writing-mode:lr-tb;direction:ltr;text-orientation:mixed;dominant-baseline:auto;baseline-shift:baseline;text-anchor:start;white-space:normal;shape-padding:0;clip-rule:nonzero;display:inline;overflow:visible;visibility:visible;opacity:1;isolation:auto;mix-blend-mode:normal;color-interpolation:sRGB;color-interpolation-filters:linearRGB;solid-color:#000000;solid-opacity:1;vector-effect:none;fill:#3aa57c;fill-opacity:1;fill-rule:nonzero;stroke:none;stroke-width:1.44561982;stroke-linecap:round;stroke-linejoin:round;stroke-miterlimit:4;stroke-dasharray:none;stroke-dashoffset:0;stroke-opacity:1;marker:none;color-rendering:auto;image-rendering:auto;shape-rendering:auto;text-rendering:auto;enable-background:accumulate" />
</svg>
