<?xml version="1.0" encoding="UTF-8" standalone="no"?>
<svg
   width="263.31104mm"
   height="119.92635mm"
   viewBox="0 0 263.31104 119.92635"
   version="1.1"
   id="svg8"
   sodipodi:docname="logo.svg"
   inkscape:version="1.3.2 (091e20ef0f, 2023-11-25, custom)"
   inkscape:export-filename="logo.png"
   inkscape:export-xdpi="95.885086"
   inkscape:export-ydpi="95.885086"
   xmlns:inkscape="http://www.inkscape.org/namespaces/inkscape"
   xmlns:sodipodi="http://sodipodi.sourceforge.net/DTD/sodipodi-0.dtd"
   xmlns="http://www.w3.org/2000/svg"
   xmlns:svg="http://www.w3.org/2000/svg"
   xmlns:rdf="http://www.w3.org/1999/02/22-rdf-syntax-ns#"
   xmlns:cc="http://creativecommons.org/ns#"
   xmlns:dc="http://purl.org/dc/elements/1.1/">
  <sodipodi:namedview
     id="namedview1"
     pagecolor="#ffffff"
     bordercolor="#666666"
     borderopacity="1.0"
     inkscape:showpageshadow="2"
     inkscape:pageopacity="0.0"
     inkscape:pagecheckerboard="0"
     inkscape:deskcolor="#d1d1d1"
     inkscape:document-units="mm"
     showgrid="false"
     inkscape:zoom="1.3902192"
     inkscape:cx="469.35044"
     inkscape:cy="226.58297"
     inkscape:window-width="1920"
     inkscape:window-height="1130"
     inkscape:window-x="0"
     inkscape:window-y="0"
     inkscape:window-maximized="1"
     inkscape:current-layer="svg8" />
  <style
     id="style834" />
  <metadata
     id="metadata9">
    <rdf:RDF>
      <cc:Work
         rdf:about="">
        <dc:format>image/svg+xml</dc:format>
        <dc:type
           rdf:resource="http://purl.org/dc/dcmitype/StillImage" />
      </cc:Work>
    </rdf:RDF>
  </metadata>
  <defs
     id="defs4571" />
  <path
     style="color:#000000;display:inline;overflow:visible;visibility:visible;opacity:1;fill:#2185d0;fill-opacity:1;fill-rule:nonzero;stroke:none;stroke-width:1.7333498;stroke-linecap:round;stroke-linejoin:round;stroke-miterlimit:4;stroke-dasharray:none;stroke-dashoffset:0;stroke-opacity:1;marker:none;enable-background:accumulate"
     d="M -50.712433,79.908707 H 212.5986 V 199.83506 H -50.712433 Z"
     id="rect4599"
     inkscape:label="background"
     transform="translate(50.712433,-79.908707)" />
  <path
     style="color:#000000;font-style:normal;font-variant:normal;font-weight:normal;font-stretch:normal;font-size:medium;line-height:normal;font-family:sans-serif;font-variant-ligatures:normal;font-variant-position:normal;font-variant-caps:normal;font-variant-numeric:normal;font-variant-alternates:normal;font-feature-settings:normal;text-indent:0;text-align:start;text-decoration:none;text-decoration-line:none;text-decoration-style:solid;text-decoration-color:#000000;letter-spacing:normal;word-spacing:normal;text-transform:none;writing-mode:lr-tb;direction:ltr;text-orientation:mixed;dominant-baseline:auto;baseline-shift:baseline;text-anchor:start;white-space:normal;shape-padding:0;clip-rule:nonzero;display:inline;overflow:visible;visibility:visible;opacity:1;isolation:auto;mix-blend-mode:normal;color-interpolation:sRGB;color-interpolation-filters:linearRGB;solid-color:#000000;solid-opacity:1;vector-effect:none;fill:#ffffff;fill-opacity:1;fill-rule:nonzero;stroke:none;stroke-width:1.44562;stroke-linecap:round;stroke-linejoin:round;stroke-miterlimit:4;stroke-dasharray:none;stroke-dashoffset:0;stroke-opacity:1;marker:none;color-rendering:auto;image-rendering:auto;shape-rendering:auto;text-rendering:auto;enable-background:accumulate"
     d="m 89.576369,99.214634 c -2.203458,0 -4.000788,1.796296 -4.000791,3.999756 v 1.23248 c 0,2.20345 1.79741,3.99924 4.000868,3.99924 h 0.900113 l 1.3e-5,62.52435 c 3.9e-5,0.39918 0.323773,0.72292 0.722953,0.72296 h 31.491095 c 0.41323,4.19364 3.9595,7.48481 8.25945,7.48481 4.29993,0 7.84707,-3.29117 8.26047,-7.48481 h 30.94437 c 0.39918,-4e-5 0.72291,-0.32378 0.72295,-0.72296 l 1e-5,-62.52435 h 0.91784 c 2.20346,0 4.00071,-1.79579 4.00071,-3.99924 v -1.23248 c 0,-2.20346 -1.79733,-3.999756 -4.00079,-3.999756 z m 0,1.445906 c 70.966481,0.43129 54.812841,0 82.219261,0 1.4276,0 2.5554,1.12626 2.5554,2.55385 v 1.23248 c 0,1.42758 -1.1278,2.55386 -2.5554,2.55386 h -1.64072 -78.955385 -1.623156 c -1.427591,0 -2.555398,-1.12628 -2.555398,-2.55386 v -1.23248 c 0,-1.42759 1.127834,-2.56252 2.555398,-2.55385 z m 34.770481,71.03288 h 13.20746 c -0.40184,3.29625 -3.19653,5.83633 -6.60424,5.83633 -3.40773,0 -6.20157,-2.54008 -6.60322,-5.83633 z"
     id="rect4550"
     sodipodi:nodetypes="ssssccccsccccssssssssssccsssscscc"
     inkscape:label="screen"
     transform="translate(50.712433,-79.908707)" />
  <path
     style="font-size:35.2778px;line-height:125%;font-family:'Francker Pro';-inkscape-font-specification:'Francker Pro, Normal';letter-spacing:0px;word-spacing:0px;fill:#2185d0;stroke-width:0.264583px"
     d="m 170.13689,49.720802 h -4.09222 l -5.22112,15.063621 -5.25639,-15.063621 h -4.1275 l 6.24417,17.603623 h 2.36361 l -0.77611,2.116668 c -1.27,3.633613 -1.48167,3.739447 -3.70417,3.739447 -2.75167,0 -4.445,-0.352778 -4.445,-0.352778 v 2.151946 c 0,0 2.25778,0.776111 5.92667,0.776111 3.13972,0 4.23333,-1.023056 5.92667,-5.856115 z m 19.43804,17.286123 V 55.576917 c 0,-5.856115 -2.99861,-6.279449 -8.00806,-6.279449 -4.90362,0 -7.97278,0.740834 -7.97278,0.740834 v 2.116668 c 0,0 2.89278,-0.458611 7.33778,-0.423334 3.4925,0.03528 4.65667,0.105834 4.65667,3.845281 v 1.234723 h -5.99723 c -4.19806,0 -7.02028,0 -7.02028,5.29167 0,5.644448 4.05695,5.644448 8.46667,5.644448 5.29167,0 8.53723,-0.740833 8.53723,-0.740833 z m -3.98639,-1.94028 c 0,0 -1.72861,0.246945 -4.48028,0.246945 -3.175,0 -4.44501,0 -4.44501,-3.21028 0,-3.033891 0.77612,-3.033891 3.88056,-3.033891 h 5.04473 z m 25.68221,-15.345843 h -4.09222 l -5.22112,15.063621 -5.25639,-15.063621 h -4.1275 l 6.24417,17.603623 h 2.36361 l -0.77611,2.116668 c -1.27,3.633613 -1.48167,3.739447 -3.70417,3.739447 -2.75167,0 -4.445,-0.352778 -4.445,-0.352778 v 2.151946 c 0,0 2.25778,0.776111 5.92667,0.776111 3.13972,0 4.23333,-1.023056 5.92667,-5.856115 z"
     id="text1"
     inkscape:label="yay"
     aria-label="yay" />
  <path
     style="font-size:35.2778px;line-height:125%;font-family:'Francker Pro';-inkscape-font-specification:'Francker Pro, Normal';letter-spacing:0px;word-spacing:0px;fill:#ffffff;stroke-width:0.264583px"
     d="m 50.474962,59.528031 v -0.846668 c 0,-8.18445 -1.12889,-9.383895 -8.713617,-9.383895 -7.584727,0 -8.678339,1.199445 -8.678339,9.383895 0,7.86695 0.776112,9.066395 8.360839,9.066395 5.185837,0 8.360839,-0.740833 8.360839,-0.740833 v -2.116669 c 0,0 -3.033891,0.388056 -7.725839,0.388056 -4.797781,0 -4.903614,-0.03528 -4.903614,-5.750281 z m -4.092225,-2.293057 h -9.207506 c 0,-5.503338 0.388056,-5.503338 4.586114,-5.503338 4.198059,0 4.621392,0 4.621392,5.503338 z M 71.535784,49.720802 H 67.478837 L 62.257723,64.784423 57.036608,49.720802 h -4.127503 l 6.208893,17.603623 h 6.244171 z m 19.861423,9.807229 v -0.846668 c 0,-8.18445 -1.128889,-9.383895 -8.713617,-9.383895 -7.584727,0 -8.678339,1.199445 -8.678339,9.383895 0,7.86695 0.776112,9.066395 8.360839,9.066395 5.185837,0 8.360839,-0.740833 8.360839,-0.740833 v -2.116669 c 0,0 -3.033891,0.388056 -7.725839,0.388056 -4.797781,0 -4.903614,-0.03528 -4.903614,-5.750281 z m -4.092225,-2.293057 h -9.207506 c 0,-5.503338 0.388056,-5.503338 4.586114,-5.503338 4.198059,0 4.621392,0 4.621392,5.503338 z M 112.24636,67.324425 V 55.576917 c 0,-5.856115 -2.89278,-6.279449 -8.32556,-6.279449 -5.15056,0 -8.290284,0.740834 -8.290284,0.740834 V 67.324425 H 99.58163 V 52.119692 c 0,0 1.69333,-0.246944 4.33917,-0.246944 3.03389,0 4.33917,0 4.33917,3.704169 v 11.747508 z m 18.66193,-0.3175 v -2.187224 c 0,0 -1.65805,0.388056 -4.30389,0.388056 -3.52778,0 -3.59833,-0.564445 -3.59833,-3.739447 v -9.172229 h 6.63222 v -2.575279 h -6.63222 v -5.997226 h -3.98639 v 5.997226 h -3.73945 v 2.575279 h 3.73945 v 9.172229 c 0,4.198058 0.81138,6.279448 5.92667,6.279448 3.66889,0 5.96194,-0.740833 5.96194,-0.740833 z"
     id="text6"
     inkscape:label="event"
     aria-label="event" />
</svg>
