<?xml version="1.0" encoding="UTF-8"?>
<svg xmlns="http://www.w3.org/2000/svg" xmlns:xlink="http://www.w3.org/1999/xlink" width="150px" height="150px" viewBox="0 0 150 150" version="1.1">
<g id="surface1">
<path style=" stroke:none;fill-rule:nonzero;fill:rgb(100%,100%,100%);fill-opacity:1;" d="M 12.949219 15.042969 C 9.640625 15.042969 6.945312 17.738281 6.945312 21.046875 L 6.945312 22.898438 C 6.945312 26.203125 9.640625 28.902344 12.949219 28.902344 L 14.300781 28.902344 L 14.300781 122.773438 C 14.300781 123.375 14.789062 123.859375 15.386719 123.859375 L 62.667969 123.859375 C 63.289062 130.15625 68.613281 135.097656 75.070312 135.097656 C 81.523438 135.097656 86.851562 130.15625 87.472656 123.859375 L 133.929688 123.859375 C 134.53125 123.859375 135.015625 123.375 135.015625 122.773438 L 135.015625 28.902344 L 136.394531 28.902344 C 139.703125 28.902344 142.402344 26.203125 142.402344 22.898438 L 142.402344 21.046875 C 142.402344 17.738281 139.703125 15.042969 136.394531 15.042969 Z M 12.949219 17.210938 L 136.394531 17.210938 C 138.539062 17.210938 140.230469 18.902344 140.230469 21.046875 L 140.230469 22.898438 C 140.230469 25.039062 138.539062 26.730469 136.394531 26.730469 L 12.949219 26.730469 C 10.808594 26.730469 9.113281 25.039062 9.113281 22.898438 L 9.113281 21.046875 C 9.113281 18.902344 10.808594 17.210938 12.949219 17.210938 Z M 74.320312 58.539062 C 90.847656 58.539062 93.328125 60.878906 93.328125 76.855469 L 93.328125 79.265625 L 67.160156 79.265625 C 67.160156 88.214844 67.300781 88.351562 74.734375 88.421875 C 85.0625 88.558594 92.019531 87.734375 92.019531 87.734375 L 92.019531 93.105469 C 92.019531 93.105469 85.0625 94.617188 73.703125 94.617188 C 56.972656 94.617188 55.25 92.207031 55.25 76.855469 C 55.25 60.878906 57.796875 58.539062 74.320312 58.539062 Z M 74.320312 64.597656 C 67.78125 64.597656 67.160156 64.597656 67.160156 73.6875 L 81.414062 73.6875 C 81.414062 64.597656 80.933594 64.597656 74.320312 64.597656 Z M 65.15625 123.859375 L 84.984375 123.859375 C 84.382812 128.808594 80.1875 132.625 75.070312 132.625 C 69.953125 132.625 65.757812 128.808594 65.15625 123.859375 Z M 65.15625 123.859375 "/>
</g>
</svg>
