<?xml version="1.0" encoding="UTF-8"?>
<svg xmlns="http://www.w3.org/2000/svg" xmlns:xlink="http://www.w3.org/1999/xlink" width="242px" height="110px" viewBox="0 0 242 110" version="1.1">
<g id="surface1">
<path style=" stroke:none;fill-rule:nonzero;fill:rgb(12.941176%,52.156863%,81.568627%);fill-opacity:1;" d="M 0 0 L 241.996094 0 L 241.996094 109.984375 L 0 109.984375 Z M 0 0 "/>
<path style=" stroke:none;fill-rule:nonzero;fill:rgb(100%,100%,100%);fill-opacity:1;" d="M 128.933594 17.707031 C 126.910156 17.707031 125.257812 19.351562 125.257812 21.375 L 125.257812 22.503906 C 125.257812 24.523438 126.910156 26.171875 128.933594 26.171875 L 129.761719 26.171875 L 129.761719 83.511719 C 129.761719 83.878906 130.058594 84.175781 130.425781 84.175781 L 159.367188 84.175781 C 159.746094 88.019531 163.007812 91.039062 166.957031 91.039062 C 170.910156 91.039062 174.171875 88.019531 174.550781 84.175781 L 202.988281 84.175781 C 203.355469 84.175781 203.652344 83.878906 203.652344 83.511719 L 203.652344 26.171875 L 204.496094 26.171875 C 206.523438 26.171875 208.175781 24.523438 208.175781 22.503906 L 208.175781 21.375 C 208.175781 19.351562 206.523438 17.707031 204.496094 17.707031 Z M 128.933594 19.03125 C 194.15625 19.425781 179.308594 19.03125 204.496094 19.03125 C 205.808594 19.03125 206.847656 20.0625 206.847656 21.375 L 206.847656 22.503906 C 206.847656 23.8125 205.808594 24.847656 204.496094 24.847656 L 128.933594 24.847656 C 127.621094 24.847656 126.585938 23.8125 126.585938 22.503906 L 126.585938 21.375 C 126.585938 20.0625 127.621094 19.023438 128.933594 19.03125 Z M 160.890625 84.175781 L 173.027344 84.175781 C 172.660156 87.199219 170.089844 89.527344 166.957031 89.527344 C 163.828125 89.527344 161.257812 87.199219 160.890625 84.175781 Z M 160.890625 84.175781 "/>
<path style=" stroke:none;fill-rule:nonzero;fill:rgb(12.941176%,52.156863%,81.568627%);fill-opacity:1;" d="M 156.367188 45.597656 L 152.605469 45.597656 L 147.804688 59.414062 L 142.976562 45.597656 L 139.183594 45.597656 L 144.921875 61.742188 L 147.09375 61.742188 L 146.378906 63.683594 C 145.210938 67.015625 145.019531 67.113281 142.976562 67.113281 C 140.445312 67.113281 138.890625 66.789062 138.890625 66.789062 L 138.890625 68.761719 C 138.890625 68.761719 140.964844 69.476562 144.335938 69.476562 C 147.222656 69.476562 148.226562 68.535156 149.785156 64.105469 Z M 174.230469 61.453125 L 174.230469 50.96875 C 174.230469 45.597656 171.472656 45.210938 166.871094 45.210938 C 162.363281 45.210938 159.542969 45.890625 159.542969 45.890625 L 159.542969 47.832031 C 159.542969 47.832031 162.203125 47.410156 166.285156 47.441406 C 169.496094 47.476562 170.566406 47.539062 170.566406 50.96875 L 170.566406 52.101562 L 165.054688 52.101562 C 161.195312 52.101562 158.601562 52.101562 158.601562 56.953125 C 158.601562 62.132812 162.332031 62.132812 166.382812 62.132812 C 171.246094 62.132812 174.230469 61.453125 174.230469 61.453125 Z M 170.566406 59.671875 C 170.566406 59.671875 168.976562 59.898438 166.449219 59.898438 C 163.53125 59.898438 162.363281 59.898438 162.363281 56.953125 C 162.363281 54.171875 163.078125 54.171875 165.929688 54.171875 L 170.566406 54.171875 Z M 194.167969 45.597656 L 190.410156 45.597656 L 185.609375 59.414062 L 180.78125 45.597656 L 176.984375 45.597656 L 182.726562 61.742188 L 184.898438 61.742188 L 184.183594 63.683594 C 183.015625 67.015625 182.820312 67.113281 180.78125 67.113281 C 178.25 67.113281 176.695312 66.789062 176.695312 66.789062 L 176.695312 68.761719 C 176.695312 68.761719 178.769531 69.476562 182.140625 69.476562 C 185.027344 69.476562 186.03125 68.535156 187.589844 64.105469 Z M 194.167969 45.597656 "/>
<path style=" stroke:none;fill-rule:nonzero;fill:rgb(100%,100%,100%);fill-opacity:1;" d="M 46.390625 54.59375 L 46.390625 53.816406 C 46.390625 46.308594 45.351562 45.210938 38.382812 45.210938 C 31.410156 45.210938 30.40625 46.308594 30.40625 53.816406 C 30.40625 61.03125 31.117188 62.132812 38.089844 62.132812 C 42.855469 62.132812 45.773438 61.453125 45.773438 61.453125 L 45.773438 59.511719 C 45.773438 59.511719 42.984375 59.867188 38.671875 59.867188 C 34.261719 59.867188 34.167969 59.832031 34.167969 54.59375 Z M 42.628906 52.488281 L 34.167969 52.488281 C 34.167969 47.441406 34.523438 47.441406 38.382812 47.441406 C 42.238281 47.441406 42.628906 47.441406 42.628906 52.488281 Z M 65.746094 45.597656 L 62.015625 45.597656 L 57.21875 59.414062 L 52.417969 45.597656 L 48.625 45.597656 L 54.332031 61.742188 L 60.070312 61.742188 Z M 84 54.59375 L 84 53.816406 C 84 46.308594 82.960938 45.210938 75.992188 45.210938 C 69.019531 45.210938 68.015625 46.308594 68.015625 53.816406 C 68.015625 61.03125 68.726562 62.132812 75.699219 62.132812 C 80.464844 62.132812 83.382812 61.453125 83.382812 61.453125 L 83.382812 59.511719 C 83.382812 59.511719 80.59375 59.867188 76.28125 59.867188 C 71.875 59.867188 71.777344 59.832031 71.777344 54.59375 Z M 80.238281 52.488281 L 71.777344 52.488281 C 71.777344 47.441406 72.132812 47.441406 75.992188 47.441406 C 79.847656 47.441406 80.238281 47.441406 80.238281 52.488281 Z M 103.160156 61.742188 L 103.160156 50.96875 C 103.160156 45.597656 100.503906 45.210938 95.507812 45.210938 C 90.777344 45.210938 87.890625 45.890625 87.890625 45.890625 L 87.890625 61.742188 L 91.519531 61.742188 L 91.519531 47.796875 C 91.519531 47.796875 93.078125 47.570312 95.507812 47.570312 C 98.296875 47.570312 99.496094 47.570312 99.496094 50.96875 L 99.496094 61.742188 Z M 120.3125 61.453125 L 120.3125 59.445312 C 120.3125 59.445312 118.789062 59.800781 116.355469 59.800781 C 113.113281 59.800781 113.050781 59.285156 113.050781 56.371094 L 113.050781 47.960938 L 119.144531 47.960938 L 119.144531 45.597656 L 113.050781 45.597656 L 113.050781 40.097656 L 109.386719 40.097656 L 109.386719 45.597656 L 105.949219 45.597656 L 105.949219 47.960938 L 109.386719 47.960938 L 109.386719 56.371094 C 109.386719 60.222656 110.132812 62.132812 114.832031 62.132812 C 118.203125 62.132812 120.3125 61.453125 120.3125 61.453125 Z M 120.3125 61.453125 "/>
</g>
</svg>
