<?xml version="1.0" encoding="UTF-8" standalone="no"?>
<svg
   id="svg8"
   version="1.1"
   viewBox="0 0 100 99.999997"
   height="100mm"
   width="100mm"
   sodipodi:docname="icon_white.svg"
   inkscape:version="1.3.2 (091e20ef0f, 2023-11-25, custom)"
   inkscape:export-filename="icon.png"
   inkscape:export-xdpi="96.012001"
   inkscape:export-ydpi="96.012001"
   xmlns:inkscape="http://www.inkscape.org/namespaces/inkscape"
   xmlns:sodipodi="http://sodipodi.sourceforge.net/DTD/sodipodi-0.dtd"
   xmlns="http://www.w3.org/2000/svg"
   xmlns:svg="http://www.w3.org/2000/svg"
   xmlns:rdf="http://www.w3.org/1999/02/22-rdf-syntax-ns#"
   xmlns:cc="http://creativecommons.org/ns#"
   xmlns:dc="http://purl.org/dc/elements/1.1/">
  <sodipodi:namedview
     id="namedview1"
     pagecolor="#ffffff"
     bordercolor="#666666"
     borderopacity="1.0"
     inkscape:showpageshadow="2"
     inkscape:pageopacity="0.0"
     inkscape:pagecheckerboard="0"
     inkscape:deskcolor="#d1d1d1"
     inkscape:document-units="mm"
     inkscape:zoom="1.9407086"
     inkscape:cx="189.36382"
     inkscape:cy="196.32004"
     inkscape:window-width="1920"
     inkscape:window-height="1130"
     inkscape:window-x="0"
     inkscape:window-y="0"
     inkscape:window-maximized="1"
     inkscape:current-layer="svg8" />
  <metadata
     id="metadata8">
    <rdf:RDF>
      <cc:Work
         rdf:about="">
        <dc:format>image/svg+xml</dc:format>
        <dc:type
           rdf:resource="http://purl.org/dc/dcmitype/StillImage" />
      </cc:Work>
    </rdf:RDF>
  </metadata>
  <defs
     id="defs8" />
  <path
     id="rect4550"
     style="color:#000000;font-style:normal;font-variant:normal;font-weight:normal;font-stretch:normal;font-size:medium;line-height:normal;font-family:sans-serif;font-variant-ligatures:normal;font-variant-position:normal;font-variant-caps:normal;font-variant-numeric:normal;font-variant-alternates:normal;font-feature-settings:normal;text-indent:0;text-align:start;text-decoration:none;text-decoration-line:none;text-decoration-style:solid;text-decoration-color:#000000;letter-spacing:normal;word-spacing:normal;text-transform:none;writing-mode:lr-tb;direction:ltr;text-orientation:mixed;dominant-baseline:auto;baseline-shift:baseline;text-anchor:start;white-space:normal;shape-padding:0;clip-rule:nonzero;display:inline;overflow:visible;visibility:visible;opacity:1;isolation:auto;mix-blend-mode:normal;color-interpolation:sRGB;color-interpolation-filters:linearRGB;solid-color:#000000;solid-opacity:1;vector-effect:none;fill:#ffffff;fill-opacity:1;fill-rule:nonzero;stroke:none;stroke-width:1.44562;stroke-linecap:round;stroke-linejoin:round;stroke-miterlimit:4;stroke-dasharray:none;stroke-dashoffset:0;stroke-opacity:1;marker:none;color-rendering:auto;image-rendering:auto;shape-rendering:auto;text-rendering:auto;enable-background:accumulate"
     inkscape:label="screen"
     d="M 44.723072 89.871672 C 42.519616 89.871672 40.722283 91.66797 40.722283 93.871428 L 40.722283 95.103911 C 40.722283 97.307359 42.519616 99.10315 44.723072 99.10315 L 45.623276 99.10315 L 45.623276 161.6275 C 45.623315 162.02668 45.94705 162.35041 46.346229 162.35045 L 77.83733 162.35045 C 78.250558 166.5441 81.796836 169.83527 86.096774 169.83527 C 90.396699 169.83527 93.943851 166.5441 94.357252 162.35045 L 125.30162 162.35045 C 125.7008 162.35041 126.02453 162.02668 126.02457 161.6275 L 126.02457 99.10315 L 126.94234 99.10315 C 129.1458 99.10315 130.94313 97.307359 130.94313 95.103911 L 130.94313 93.871428 C 130.94313 91.66797 129.1458 89.871672 126.94234 89.871672 L 44.723072 89.871672 z M 44.723072 91.317579 L 126.94234 91.317579 C 128.36994 91.317579 129.49774 92.443839 129.49774 93.871428 L 129.49774 95.103911 C 129.49774 96.53149 128.36994 97.65776 126.94234 97.65776 L 125.30162 97.65776 L 46.346229 97.65776 L 44.723072 97.65776 C 43.295483 97.65776 42.167673 96.53149 42.167673 95.103911 L 42.167673 93.871428 C 42.167673 92.443839 43.295483 91.317579 44.723072 91.317579 z M 85.59913 118.84251 C 96.605783 118.84251 98.256755 120.402 98.256755 131.04177 L 98.256755 132.64684 L 80.829912 132.64684 C 80.829912 138.60878 80.921572 138.70035 85.874565 138.74621 C 92.753723 138.83793 97.385491 138.28784 97.385491 138.28784 L 97.385491 141.86488 C 97.385491 141.86488 92.753826 142.8736 85.186752 142.8736 C 74.042516 142.8736 72.895513 141.26878 72.895513 131.04177 C 72.895513 120.402 74.592477 118.84251 85.59913 118.84251 z M 85.59913 122.87844 C 81.24233 122.87844 80.829912 122.87816 80.829912 128.93182 L 90.322873 128.93182 C 90.322873 122.87816 90.001791 122.87844 85.59913 122.87844 z M 79.49356 162.35045 L 92.701022 162.35045 C 92.299185 165.6467 89.50448 168.18679 86.096774 168.18679 C 82.689055 168.18679 79.89521 165.6467 79.49356 162.35045 z "
     transform="translate(-36.097242,-79.853679)" />
</svg>
