<?xml version="1.0" encoding="UTF-8" standalone="no"?>
<svg
   xmlns:dc="http://purl.org/dc/elements/1.1/"
   xmlns:cc="http://creativecommons.org/ns#"
   xmlns:rdf="http://www.w3.org/1999/02/22-rdf-syntax-ns#"
   xmlns:svg="http://www.w3.org/2000/svg"
   xmlns="http://www.w3.org/2000/svg"
   id="svg8"
   version="1.1"
   viewBox="0 0 133.11528 137.90046"
   height="137.90047mm"
   width="133.11528mm">
  <metadata
     id="metadata924">
    <rdf:RDF>
      <cc:Work
         rdf:about="">
        <dc:format>image/svg+xml</dc:format>
        <dc:type
           rdf:resource="http://purl.org/dc/dcmitype/StillImage" />
        <dc:title></dc:title>
      </cc:Work>
    </rdf:RDF>
  </metadata>
  <defs
     id="defs8" />
  <path
     id="rect4550"
     d="m 25.32991,52.936865 c -2.20345,0 -4.00079,1.796293 -4.00079,3.999753 v 1.23249 c 0,2.20345 1.79734,3.99924 4.00079,3.99924 h 0.90021 V 80.306219 H 15.444418 V 102.7958 H 4.9999998 l 0.08459,22.4962 53.3595802,0.12365 c 0.41323,4.19365 3.95951,7.48481 8.25945,7.48481 4.29993,0 7.84707,-3.29116 8.26047,-7.48481 l 52.92824,-0.002 0.22294,-22.44858 L 117.309,102.7958 V 80.306219 H 106.6314 V 62.168348 h 0.91778 c 2.20346,0 4.00079,-1.79579 4.00079,-3.99924 v -1.23249 c 0,-2.20346 -1.79733,-3.999753 -4.00079,-3.999753 z m 0,1.445903 h 82.21928 c 1.4276,0 2.55539,1.12626 2.55539,2.55385 v 1.23249 c 0,1.42758 -1.1278,2.55385 -2.5554,2.55385 h -1.64073 -78.95538 -1.62316 c -1.42759,0 -2.55539,-1.12627 -2.55539,-2.55385 v -1.23249 c 0,-1.42759 1.1278,-2.55385 2.55539,-2.55385 z m 44.37404,22.973285 c 2.56034,0 4.56929,1.06234 6.02651,3.18688 1.45721,2.12454 2.18591,5.03933 2.18591,8.74366 0,3.73156 -0.76241,6.673 -2.28772,8.82478 -1.51169,2.138157 -3.56844,3.207037 -6.16965,3.207037 -1.17122,0 -2.21998,-0.19021 -3.14606,-0.57154 -0.92608,-0.39495 -1.84499,-1.096467 -2.75745,-2.104267 h -0.36794 c 0.24513,1.620647 0.36794,2.628127 0.36794,3.023077 v 9.29504 H 55.56786 V 77.764813 h 6.49625 l 1.12344,2.94194 h 0.36794 c 1.48446,-2.2335 3.53364,-3.3507 6.14846,-3.3507 z m -2.92075,6.27145 c -1.17122,0 -1.99554,0.42222 -2.4722,1.26659 -0.46304,0.83075 -0.71465,2.07024 -0.75551,3.71812 v 0.63355 c 0,1.98835 0.26519,3.42511 0.79633,4.31034 0.53114,0.88522 1.36904,1.32756 2.51303,1.32756 1.02141,0 1.76369,-0.43581 2.22674,-1.30741 0.46303,-0.88522 0.69453,-2.34261 0.69453,-4.37183 0,-1.98835 -0.2315,-3.41152 -0.69453,-4.26951 -0.46305,-0.8716 -1.2325,-1.30741 -2.30839,-1.30741 z m -6.6828,41.788147 h 13.20746 c -0.40183,3.29625 -3.19653,5.83633 -6.60424,5.83633 -3.40772,0 -6.20157,-2.54008 -6.60322,-5.83633 z"
     style="color:#000000;font-style:normal;font-variant:normal;font-weight:normal;font-stretch:normal;font-size:medium;line-height:normal;font-family:sans-serif;font-variant-ligatures:normal;font-variant-position:normal;font-variant-caps:normal;font-variant-numeric:normal;font-variant-alternates:normal;font-feature-settings:normal;text-indent:0;text-align:start;text-decoration:none;text-decoration-line:none;text-decoration-style:solid;text-decoration-color:#000000;letter-spacing:normal;word-spacing:normal;text-transform:none;writing-mode:lr-tb;direction:ltr;text-orientation:mixed;dominant-baseline:auto;baseline-shift:baseline;text-anchor:start;white-space:normal;shape-padding:0;clip-rule:nonzero;display:inline;overflow:visible;visibility:visible;opacity:1;isolation:auto;mix-blend-mode:normal;color-interpolation:sRGB;color-interpolation-filters:linearRGB;solid-color:#000000;solid-opacity:1;vector-effect:none;fill:#3aa57c;fill-opacity:1;fill-rule:nonzero;stroke:none;stroke-width:1.44561982;stroke-linecap:round;stroke-linejoin:round;stroke-miterlimit:4;stroke-dasharray:none;stroke-dashoffset:0;stroke-opacity:1;marker:none;color-rendering:auto;image-rendering:auto;shape-rendering:auto;text-rendering:auto;enable-background:accumulate" />
  <rect
     y="25.750534"
     x="60.46772"
     height="27.404617"
     width="12.179829"
     id="rect943"
     style="opacity:1;fill:#3aa57c;fill-opacity:1;stroke:none;stroke-width:0.31999999;stroke-miterlimit:4;stroke-dasharray:none;stroke-opacity:1" />
  <rect
     y="23.301435"
     x="65.959541"
     height="3.229665"
     width="1.1961722"
     id="rect945"
     style="opacity:1;fill:#3aa57c;fill-opacity:1;stroke:none;stroke-width:0.31999999;stroke-miterlimit:4;stroke-dasharray:none;stroke-opacity:1" />
  <path
     id="path949"
     d="m 66.22567,4.9999998 c 0,0 -4.26791,9.8902122 -3.94737,13.1578952 0.20583,2.098312 1.80608,4.179661 3.68124,5.14354 0.35462,0.182282 0.84277,0.18463 1.19617,0 1.80826,-0.944705 3.32712,-2.990744 3.4958,-5.023923 C 70.92874,14.935915 66.22567,4.9999998 66.22567,4.9999998 Z"
     style="fill:#ffffff;fill-opacity:1;stroke:none;stroke-width:0.26458332px;stroke-linecap:butt;stroke-linejoin:miter;stroke-opacity:1" />
  <path
     id="path949-7"
     d="m 66.35244,12.910949 c 0,0 -2.02967,4.70346 -1.87723,6.257462 0.0979,0.997889 0.85891,1.987709 1.75067,2.446099 0.16865,0.08669 0.40079,0.0878 0.56886,0 0.85995,-0.449271 1.58227,-1.4223 1.66249,-2.389212 0.13184,-1.589154 -2.10479,-6.314349 -2.10479,-6.314349 z"
     style="fill:#000000;fill-opacity:0;stroke:none;stroke-width:0.126;stroke-linecap:butt;stroke-linejoin:miter;stroke-miterlimit:4;stroke-dasharray:none;stroke-opacity:1" />
  <path
     transform="scale(0.26458332)"
     id="path836"
     d="m 253.28685,94.043422 c -0.14342,-3.846021 -1.71029,-5.979766 -3.04786,-4.150538 -0.55958,0.765278 -0.60579,0.726912 -0.60579,-0.503006 0,-1.145544 -0.40769,-1.599511 -2.9196,-3.250997 -5.24023,-3.445254 -9.4809,-9.651487 -10.74836,-15.730282 -0.50005,-2.398248 -0.53314,-3.775828 -0.15691,-6.533008 0.88534,-6.488122 3.70089,-16.373923 7.8365,-27.515075 2.05364,-5.53243 6.41121,-16.552299 6.63292,-16.774009 0.0717,-0.07174 1.55076,3.144621 3.28672,7.147469 10.11504,23.323779 14.09234,36.791275 12.97889,43.94776 -0.87044,5.594646 -5.50511,12.478306 -10.646,15.81201 l -2.46512,1.598551 0.13678,2.136475 c 0.0752,1.175065 0.0601,2.985195 -0.0336,4.022511 l -0.17043,1.886034 z m 1.44199,-13.827107 c 4.66369,-4.105146 5.15741,-7.894235 2.17679,-16.706026 -1.77765,-5.255382 -5.29411,-13.945225 -5.93535,-14.667362 -0.67104,-0.75571 -6.39115,15.304143 -7.20397,20.225961 -0.77122,4.669862 0.94252,8.865958 4.79373,11.737494 2.33803,1.743275 3.66184,1.616647 6.1688,-0.590067 z"
     style="fill:#3aa57c;fill-opacity:1;stroke-width:0.223473;stroke:#3aa57c;stroke-opacity:1" />
  <g
     id="layer1" />
</svg>
