<?xml version="1.0" encoding="UTF-8" standalone="no"?>
<svg
   xmlns:dc="http://purl.org/dc/elements/1.1/"
   xmlns:cc="http://creativecommons.org/ns#"
   xmlns:rdf="http://www.w3.org/1999/02/22-rdf-syntax-ns#"
   xmlns:svg="http://www.w3.org/2000/svg"
   xmlns="http://www.w3.org/2000/svg"
   xmlns:sodipodi="http://sodipodi.sourceforge.net/DTD/sodipodi-0.dtd"
   xmlns:inkscape="http://www.inkscape.org/namespaces/inkscape"
   width="500"
   height="500"
   viewBox="0 0 132.29167 132.29166"
   version="1.1"
   id="svg8"
   sodipodi:docname="translate.svg"
   inkscape:export-filename="/home/rixx/src/pretalx/assets/translate.png"
   inkscape:export-xdpi="95.919998"
   inkscape:export-ydpi="95.919998"
   inkscape:version="0.92.4 5da689c313, 2019-01-14">
  <metadata
     id="metadata1060">
    <rdf:RDF>
      <cc:Work
         rdf:about="">
        <dc:format>image/svg+xml</dc:format>
        <dc:type
           rdf:resource="http://purl.org/dc/dcmitype/StillImage" />
        <dc:title></dc:title>
      </cc:Work>
    </rdf:RDF>
  </metadata>
  <sodipodi:namedview
     pagecolor="#ffffff"
     bordercolor="#666666"
     borderopacity="1"
     objecttolerance="10"
     gridtolerance="10"
     guidetolerance="10"
     inkscape:pageopacity="0"
     inkscape:pageshadow="2"
     inkscape:window-width="1920"
     inkscape:window-height="1022"
     id="namedview1058"
     showgrid="false"
     inkscape:zoom="1.1033125"
     inkscape:cx="115.99826"
     inkscape:cy="178.75125"
     inkscape:window-x="0"
     inkscape:window-y="58"
     inkscape:window-maximized="0"
     inkscape:current-layer="svg8"
     units="px" />
  <defs
     id="defs8" />
  <rect
     style="opacity:1;fill:#ffffff;fill-opacity:1;stroke:none;stroke-width:0.70166874;stroke-linejoin:round;stroke-miterlimit:1.5;stroke-dasharray:none;stroke-opacity:1"
     id="rect1171"
     width="132.66019"
     height="132.6602"
     x="-4.6550461e-09"
     y="-0.19895715" />
  <g
     id="g1169"
     transform="matrix(1.3259882,0,0,1.3259882,-5.2467158,6.474196)">
    <path
       sodipodi:nodetypes="cccccssc"
       inkscape:connector-curvature="0"
       id="path1067"
       d="m 56.277389,66.649801 c 0,1.920582 -0.683422,3.750252 -1.919314,5.414431 l 3.758664,11.795582 -16.756073,-4.393055 c -2.921978,0.703888 -6.134527,1.093123 -9.506697,1.093123 -13.488682,0 -22.5649061,-6.467563 -22.5649071,-14.149889 0,-7.682326 10.9347381,-13.910082 24.4234201,-13.910082 13.488682,0 22.564907,6.467564 22.564907,14.14989 z"
       style="opacity:1;fill:#3aa57c;fill-opacity:1;stroke:#000000;stroke-width:0.52916664;stroke-linejoin:round;stroke-miterlimit:1.5;stroke-dasharray:none;stroke-opacity:1" />
    <text
       id="text1079-3-9"
       y="70.891602"
       x="24.7283"
       style="font-style:normal;font-weight:normal;font-size:10.58333302px;line-height:1.25;font-family:sans-serif;letter-spacing:0px;word-spacing:0px;fill:#ffffff;fill-opacity:1;stroke:none;stroke-width:0.26458332"
       xml:space="preserve"><tspan
         id="tspan1085-69-8"
         style="font-style:normal;font-variant:normal;font-weight:600;font-stretch:normal;font-size:16.93333244px;font-family:Titillium;-inkscape-font-specification:'Titillium, Semi-Bold';font-variant-ligatures:normal;font-variant-caps:normal;font-variant-numeric:normal;font-feature-settings:normal;text-align:start;writing-mode:lr-tb;text-anchor:start;fill:#ffffff;fill-opacity:1;stroke-width:0.26458332"
         y="70.891602"
         x="24.7283"
         sodipodi:role="line">п</tspan></text>
  </g>
  <g
     id="g1154"
     transform="matrix(1.3259882,0,0,1.3259882,-1.9078967,11.402929)">
    <path
       sodipodi:nodetypes="ssscccssss"
       inkscape:connector-curvature="0"
       id="path1069"
       d="m 100.56209,61.503052 c 0,8.355293 -12.922752,15.128597 -28.863769,15.128597 -3.985254,0 -7.781866,-0.423332 -11.235079,-1.18888 -1.726607,-0.382775 -3.367363,-0.851103 -4.902926,-1.394847 -1.535562,-0.543744 -12.438352,4.712397 -13.74418,4.027963 -1.305828,-0.684434 6.985304,-7.309444 5.947899,-8.114291 -1.037406,-0.804846 -1.930927,-1.664829 -2.66122,-2.569809 -1.460586,-1.809961 -2.268258,-3.79991 -2.268258,-5.888733 0,-8.355294 12.922747,-15.128598 28.863764,-15.128598 15.941017,0 28.863769,6.773304 28.863769,15.128598 z"
       style="opacity:1;fill:#3aa57c;fill-opacity:1;stroke:#000000;stroke-width:0.52916664;stroke-linejoin:round;stroke-miterlimit:1.5;stroke-dasharray:none;stroke-opacity:1" />
    <text
       id="text1079-3-9-0"
       y="67.450783"
       x="66.812103"
       style="font-style:normal;font-weight:normal;font-size:10.58333302px;line-height:1.25;font-family:sans-serif;letter-spacing:0px;word-spacing:0px;fill:#ffffff;fill-opacity:1;stroke:none;stroke-width:0.26458332"
       xml:space="preserve"><tspan
         id="tspan1085-69-8-8"
         style="font-style:normal;font-variant:normal;font-weight:600;font-stretch:normal;font-size:16.93333244px;font-family:Titillium;-inkscape-font-specification:'Titillium, Semi-Bold';font-variant-ligatures:normal;font-variant-caps:normal;font-variant-numeric:normal;font-feature-settings:normal;text-align:start;writing-mode:lr-tb;text-anchor:start;fill:#ffffff;fill-opacity:1;stroke-width:0.26458332"
         y="67.450783"
         x="66.812103"
         sodipodi:role="line">प</tspan></text>
  </g>
  <text
     xml:space="preserve"
     style="font-style:normal;font-weight:normal;font-size:14.03337479px;line-height:1.25;font-family:sans-serif;letter-spacing:0px;word-spacing:0px;fill:#ffffff;fill-opacity:1;stroke:none;stroke-width:0.35083437"
     x="28.980373"
     y="28.076073"
     id="text1079-0"><tspan
       sodipodi:role="line"
       x="28.980373"
       y="40.492321"
       style="font-style:normal;font-variant:normal;font-weight:600;font-stretch:normal;font-size:29.93786621px;font-family:Titillium;-inkscape-font-specification:'Titillium, Semi-Bold';font-variant-ligatures:normal;font-variant-caps:normal;font-variant-numeric:normal;font-feature-settings:normal;text-align:start;writing-mode:lr-tb;text-anchor:start;fill:#ffffff;fill-opacity:1;stroke-width:0.35083437"
       id="tspan1085-6" /></text>
  <g
     id="g1159"
     transform="matrix(1.3259882,0,0,1.3259882,0,-0.36243336)">
    <path
       sodipodi:nodetypes="sscccssss"
       inkscape:connector-curvature="0"
       id="path1065"
       d="m 13.735168,37.852604 c 0,2.868059 1.148276,5.600358 3.224807,8.085524 1.038265,1.242583 2.308595,2.423383 3.783486,3.528478 0,0 -10.132622,14.978649 -9.179729,15.922482 1.008726,1.190788 24.779595,-8.922124 27.234331,-8.396556 4.909471,1.051137 10.307156,1.632392 15.973036,1.632392 22.663519,0 41.035931,-9.300084 41.035931,-20.77232 0,-11.472236 -18.372412,-20.77232 -41.035931,-20.77232 -22.663519,0 -41.035931,9.300084 -41.035931,20.77232 z"
       style="opacity:1;fill:#3aa57c;fill-opacity:1;stroke:#000000;stroke-width:0.52916664;stroke-linejoin:round;stroke-miterlimit:1.5;stroke-dasharray:none;stroke-opacity:1" />
    <text
       id="text1079"
       y="41.127094"
       x="47.601917"
       style="font-style:normal;font-weight:normal;font-size:10.58333302px;line-height:1.25;font-family:sans-serif;letter-spacing:0px;word-spacing:0px;fill:#ffffff;fill-opacity:1;stroke:none;stroke-width:0.26458332"
       xml:space="preserve"><tspan
         id="tspan1085"
         style="font-style:normal;font-variant:normal;font-weight:600;font-stretch:normal;font-size:22.57777786px;font-family:Titillium;-inkscape-font-specification:'Titillium, Semi-Bold';font-variant-ligatures:normal;font-variant-caps:normal;font-variant-numeric:normal;font-feature-settings:normal;text-align:start;writing-mode:lr-tb;text-anchor:start;fill:#ffffff;fill-opacity:1;stroke-width:0.26458332"
         y="41.127094"
         x="47.601917"
         sodipodi:role="line">p</tspan></text>
  </g>
  <g
     id="g1164"
     transform="matrix(1.3259882,0,0,1.3259882,0,-0.36243336)">
    <path
       sodipodi:nodetypes="scscccssss"
       inkscape:connector-curvature="0"
       id="path1063"
       d="m 49.853567,18.606415 c 0,1.709129 -0.61447,3.337357 -1.725671,4.818313 -0.555601,0.740478 -1.235385,1.444138 -2.024634,2.102684 -0.789249,0.658546 -1.687965,1.271978 -2.681428,1.832 l -0.851837,4.389237 -6.128185,-1.736399 c -2.627176,0.626392 -5.515607,0.972773 -8.547555,0.972773 -12.127793,0 -21.9593109,-5.542092 -21.9593109,-12.378608 0,-6.836516 9.8315179,-12.378608 21.9593109,-12.378608 12.127792,3e-7 21.95931,5.542092 21.95931,12.378608 z"
       style="opacity:1;fill:#3aa57c;fill-opacity:1;stroke:#000000;stroke-width:0.52916664;stroke-linejoin:round;stroke-miterlimit:1.5;stroke-dasharray:none;stroke-opacity:1" />
    <text
       id="text1079-3"
       y="22.890549"
       x="23.246058"
       style="font-style:normal;font-weight:normal;font-size:10.58333302px;line-height:1.25;font-family:sans-serif;letter-spacing:0px;word-spacing:0px;fill:#ffffff;fill-opacity:1;stroke:none;stroke-width:0.26458332"
       xml:space="preserve"><tspan
         id="tspan1085-69"
         style="font-style:normal;font-variant:normal;font-weight:600;font-stretch:normal;font-size:16.93333244px;font-family:Titillium;-inkscape-font-specification:'Titillium, Semi-Bold';font-variant-ligatures:normal;font-variant-caps:normal;font-variant-numeric:normal;font-feature-settings:normal;text-align:start;writing-mode:lr-tb;text-anchor:start;fill:#ffffff;fill-opacity:1;stroke-width:0.26458332"
         y="22.890549"
         x="23.246058"
         sodipodi:role="line">π</tspan></text>
  </g>
</svg>
