<?xml version="1.0" encoding="UTF-8" standalone="no"?>
<svg
   style="clip-rule:evenodd;fill-rule:evenodd;stroke-linejoin:round;stroke-miterlimit:2"
   version="1.1"
   viewBox="0 0 2007.1868 641.90039"
   xml:space="preserve"
   id="svg46"
   sodipodi:docname="logo.svg"
   width="2007.1868"
   height="641.90039"
   inkscape:version="1.1.2 (0a00cf5339, 2022-02-04, custom)"
   xmlns:inkscape="http://www.inkscape.org/namespaces/inkscape"
   xmlns:sodipodi="http://sodipodi.sourceforge.net/DTD/sodipodi-0.dtd"
   xmlns="http://www.w3.org/2000/svg"
   xmlns:svg="http://www.w3.org/2000/svg"><defs
   id="defs50" /><sodipodi:namedview
   id="namedview48"
   pagecolor="#ffffff"
   bordercolor="#666666"
   borderopacity="1.0"
   inkscape:pageshadow="2"
   inkscape:pageopacity="0.0"
   inkscape:pagecheckerboard="0"
   showgrid="false"
   fit-margin-top="0"
   fit-margin-left="0"
   fit-margin-right="0"
   fit-margin-bottom="0"
   inkscape:zoom="0.48616071"
   inkscape:cx="1017.1534"
   inkscape:cy="347.62167"
   inkscape:window-width="2554"
   inkscape:window-height="1290"
   inkscape:window-x="0"
   inkscape:window-y="126"
   inkscape:window-maximized="1"
   inkscape:current-layer="svg46" />
    <g
   transform="matrix(392.94,105.29,-105.29,392.94,371.39452,508.21941)"
   style="fill:#000000"
   id="g6">
                <path
   d="m 0.259,-0.128 c 0.005,0.002 0.01,0.003 0.015,0.003 0.006,0.001 0.011,0.001 0.016,0.001 0.013,0 0.026,-0.002 0.038,-0.005 0.012,-0.004 0.023,-0.009 0.034,-0.016 0.01,-0.006 0.02,-0.015 0.028,-0.024 0.008,-0.01 0.015,-0.02 0.02,-0.032 l 0.098,0.098 C 0.495,-0.085 0.481,-0.07 0.465,-0.056 0.449,-0.042 0.432,-0.03 0.413,-0.02 0.394,-0.01 0.374,-0.003 0.354,0.002 0.333,0.007 0.312,0.01 0.29,0.01 0.253,0.01 0.219,0.003 0.186,-0.011 0.154,-0.024 0.126,-0.043 0.101,-0.068 0.077,-0.092 0.058,-0.121 0.044,-0.155 0.03,-0.189 0.023,-0.226 0.023,-0.266 c 0,-0.041 0.007,-0.079 0.021,-0.113 0.014,-0.035 0.033,-0.064 0.057,-0.088 0.025,-0.024 0.053,-0.043 0.085,-0.056 0.033,-0.013 0.067,-0.02 0.104,-0.02 0.022,0 0.043,0.003 0.064,0.008 0.021,0.005 0.041,0.013 0.059,0.022 0.019,0.01 0.037,0.022 0.053,0.036 0.016,0.014 0.03,0.03 0.043,0.048 z M 0.327,-0.403 C 0.321,-0.405 0.315,-0.407 0.309,-0.407 0.303,-0.408 0.297,-0.408 0.29,-0.408 c -0.018,0 -0.035,0.003 -0.051,0.01 -0.017,0.006 -0.031,0.016 -0.042,0.028 -0.012,0.013 -0.022,0.028 -0.029,0.045 -0.006,0.017 -0.01,0.037 -0.01,0.059 0,0.005 0,0.01 0.001,0.016 0,0.007 0.001,0.013 0.002,0.019 0.002,0.007 0.003,0.013 0.005,0.019 0.001,0.005 0.003,0.011 0.006,0.015 z"
   style="fill:#000000;fill-rule:nonzero"
   id="path4" />
            </g><path
   d="m 468.82452,22.78941 a 2.0002,2.0002 0 0 0 -1.2402,0.47071 l -82.51,69.781 a 2.0002,2.0002 0 0 0 1.0195,3.5078 l 53,7.3008 a 2.0002,2.0002 0 0 0 2.1406,-1.2676 l 29.51,-77.08 a 2.0002,2.0002 0 0 0 -1.9199,-2.7129 z m -82.672,83.068 a 2.0002,2.0002 0 0 0 -1.3281,0.47266 l -27.25,23.041 a 2.0002,2.0002 0 0 0 -0.40039,2.5898 l 48.76,77.58 a 2.0002,2.0002 0 0 0 3.5605,-0.34766 l 35.51,-92.771 a 2.0002,2.0002 0 0 0 -1.5957,-2.6953 l -57.02,-7.8496 a 2.0002,2.0002 0 0 0 -0.23632,-0.0195 z m -48.688,20.609 a 2.0002,2.0002 0 0 0 -1.2891,0.47461 l -32.361,27.369 a 2.0002,2.0002 0 0 0 -0.57618,0.8125 l -42.68,111.51 a 2.0002,2.0002 0 0 0 2.5059,2.6094 l 119.4,-40.25 a 2.0002,2.0002 0 0 0 1.2305,-1.1797 l 6.6699,-17.441 a 2.0002,2.0002 0 0 0 -0.17578,-1.7774 l -51.029,-81.191 a 2.0002,2.0002 0 0 0 -1.6953,-0.93555 z m 46.059,111.11 a 2.0002,2.0002 0 0 0 -0.58594,0.10351 l -119.4,40.25 a 2.0002,2.0002 0 0 0 -1.2285,1.1816 l -2.9492,7.709 a 2.0002,2.0002 0 0 0 2.0078,2.7109 l 106.87,-7.5312 a 2.0002,2.0002 0 0 0 1.7285,-1.2793 l 15.479,-40.43 a 2.0002,2.0002 0 0 0 -1.9199,-2.7148 z m -20.238,51.637 v 0.004 a 2.0002,2.0002 0 0 0 -0.0899,0 l -106.87,7.5293 a 2.0002,2.0002 0 0 0 -1.7285,1.2812 l -26.389,68.961 -78.846,64.293 a 2.0002,2.0002 0 0 0 -0.60547,2.2656 l 79.262,207.07 a 2.0002,2.0002 0 0 0 3.7344,0 l 133.45,-348.69 a 2.0002,2.0002 0 0 0 -1.9199,-2.7129 z"
   style="color:#000000;font-variant-ligatures:normal;font-variant-position:normal;font-variant-caps:normal;font-variant-numeric:normal;font-variant-alternates:normal;font-variant-east-asian:normal;font-feature-settings:normal;font-variation-settings:normal;text-indent:0;text-decoration-line:none;text-decoration-style:solid;text-decoration-color:#000000;text-transform:none;text-orientation:mixed;dominant-baseline:auto;white-space:normal;shape-padding:0;shape-margin:0;inline-size:0;clip-rule:nonzero;isolation:auto;mix-blend-mode:normal;solid-color:#000000;fill:#000000;fill-opacity:0.20766;fill-rule:nonzero;color-rendering:auto;image-rendering:auto;shape-rendering:auto;stop-color:#000000"
   id="path8" /><g
   transform="matrix(-6.07,0,0,6.07,4745.4545,-4938.4806)"
   style="fill:#000000;stroke:#ffffff"
   id="g12">
                <path
   d="m 767.95,857.28 -23.628,61.733 -13.057,-34.114 7.046,-16.373 3.183,-1.662 2.828,7.388 2.407,-6.29 z m -41.45,31.254 -3.536,-9.238 9.69,-5.062 z m -5.094,-23.117 3.888,-5.275 12.723,5.55 -1.956,4.545 -10.676,5.576 z m 0.516,-3.061 -3.373,4.576 -2.778,-7.259 z m 19.243,0.45 0.801,2.094 -2.196,1.147 z m 30.939,-12.361 -1.093,2.854 -21.22,10.683 6.691,-17.483 z m -32.95,-1.748 5.321,13.901 -12.365,-5.393 6.06,-8.222 z m -17.849,7.553 12.852,-3.735 -5.419,7.352 -7.261,-3.168 z m -5.618,-2.794 6.516,-3.308 -0.097,0.826 -1.744,2.434 -4.439,0.664 z m 15.85,-4.993 0.975,2.546 -9.257,1.384 0.198,-1.686 1.845,-2.575 0.317,-0.162 z m -22.441,3.73 0.527,0.141 4.615,-2.973 -3.495,-0.55 z m 6.475,-6.147 2.661,-0.513 -0.553,4.71 h -0.501 z m 41.344,-11.679 24.523,-20.491 -13.014,34.002 -9.118,-2.303 z m -34.941,13.606 1.042,-0.115 0.92,-3.857 -2.466,2.449 z m 32.932,-13.902 2.14,10.03 -5.451,-1.377 z m -26.858,10.822 0.59,1.542 -2.93,-0.354 z m 5.91,-2.64 1.254,3.276 -0.704,0.459 -4.299,-0.678 1.079,-2.214 1.327,-0.9 z m -22.245,-1.55 -1.835,2.561 2.159,1.348 0.473,-4.029 z m 2.888,-1.083 4.948,1.259 -0.537,0.346 -3.653,0.375 z m -4.047,-2.931 1.96,0.523 -1.422,0.881 z"
   style="fill:#000000;stroke:#ffffff;stroke-width:0.75px"
   id="path10" />
            </g><g
   transform="matrix(406.81,0,0,406.81,610.30452,540.06941)"
   style="fill:#000000"
   id="g16">
                <path
   d="M 0.184,0 H 0.051 v -0.523 h 0.032 l 0.044,0.051 c 0.021,-0.02 0.046,-0.035 0.073,-0.045 0.027,-0.011 0.056,-0.016 0.085,-0.016 0.032,0 0.062,0.006 0.09,0.018 0.029,0.012 0.054,0.029 0.075,0.05 0.021,0.022 0.038,0.047 0.05,0.075 0.012,0.029 0.018,0.059 0.018,0.091 V 0 H 0.385 V -0.299 C 0.385,-0.313 0.382,-0.325 0.377,-0.338 0.372,-0.35 0.365,-0.361 0.355,-0.37 0.346,-0.379 0.336,-0.386 0.324,-0.391 0.312,-0.396 0.299,-0.399 0.285,-0.399 c -0.014,0 -0.027,0.003 -0.039,0.008 -0.013,0.005 -0.024,0.012 -0.033,0.021 -0.009,0.009 -0.016,0.02 -0.021,0.032 -0.005,0.013 -0.008,0.025 -0.008,0.039 z"
   style="fill:#000000;fill-rule:nonzero"
   id="path14" />
            </g><g
   transform="matrix(406.81,0,0,406.81,837.35452,540.06941)"
   style="fill:#000000"
   id="g20">
                <path
   d="M 0.435,-0.061 C 0.424,-0.051 0.413,-0.042 0.401,-0.033 0.388,-0.025 0.376,-0.017 0.362,-0.011 0.349,-0.005 0.335,0 0.321,0.004 0.307,0.008 0.292,0.01 0.278,0.01 0.246,0.01 0.215,0.004 0.187,-0.007 0.159,-0.019 0.134,-0.035 0.113,-0.056 0.091,-0.077 0.074,-0.102 0.062,-0.133 0.05,-0.163 0.044,-0.196 0.044,-0.234 v -0.289 h 0.133 v 0.289 c 0,0.018 0.002,0.033 0.008,0.047 0.005,0.014 0.012,0.026 0.022,0.035 0.009,0.01 0.019,0.017 0.032,0.022 0.012,0.005 0.025,0.007 0.039,0.007 0.014,0 0.026,-0.003 0.039,-0.01 C 0.329,-0.139 0.34,-0.147 0.349,-0.158 0.358,-0.168 0.365,-0.18 0.37,-0.193 0.375,-0.206 0.378,-0.22 0.378,-0.234 V -0.523 H 0.511 V 0 H 0.479 Z"
   style="fill:#000000;fill-rule:nonzero"
   id="path18" />
            </g><g
   transform="matrix(392.94,105.29,-105.29,392.94,1039.5545,508.38941)"
   style="fill:#000000"
   id="g24">
                <path
   d="m 0.259,-0.128 c 0.005,0.002 0.01,0.003 0.015,0.003 0.006,0.001 0.011,0.001 0.016,0.001 0.013,0 0.026,-0.002 0.038,-0.005 0.012,-0.004 0.023,-0.009 0.034,-0.016 0.01,-0.006 0.02,-0.015 0.028,-0.024 0.008,-0.01 0.015,-0.02 0.02,-0.032 l 0.098,0.098 C 0.495,-0.085 0.481,-0.07 0.465,-0.056 0.449,-0.042 0.432,-0.03 0.413,-0.02 0.394,-0.01 0.374,-0.003 0.354,0.002 0.333,0.007 0.312,0.01 0.29,0.01 0.253,0.01 0.219,0.003 0.186,-0.011 0.154,-0.024 0.126,-0.043 0.101,-0.068 0.077,-0.092 0.058,-0.121 0.044,-0.155 0.03,-0.189 0.023,-0.226 0.023,-0.266 c 0,-0.041 0.007,-0.079 0.021,-0.113 0.014,-0.035 0.033,-0.064 0.057,-0.088 0.025,-0.024 0.053,-0.043 0.085,-0.056 0.033,-0.013 0.067,-0.02 0.104,-0.02 0.022,0 0.043,0.003 0.064,0.008 0.021,0.005 0.041,0.013 0.059,0.022 0.019,0.01 0.037,0.022 0.053,0.036 0.016,0.014 0.03,0.03 0.043,0.048 z M 0.327,-0.403 C 0.321,-0.405 0.315,-0.407 0.309,-0.407 0.303,-0.408 0.297,-0.408 0.29,-0.408 c -0.018,0 -0.035,0.003 -0.051,0.01 -0.017,0.006 -0.031,0.016 -0.042,0.028 -0.012,0.013 -0.022,0.028 -0.029,0.045 -0.006,0.017 -0.01,0.037 -0.01,0.059 0,0.005 0,0.01 0.001,0.016 0,0.007 0.001,0.013 0.002,0.019 0.002,0.007 0.003,0.013 0.005,0.019 0.001,0.005 0.003,0.011 0.006,0.015 z"
   style="fill:#000000;fill-rule:nonzero"
   id="path22" />
            </g><g
   transform="translate(-3942.9455,-1507.9806)"
   style="fill:#000000"
   id="g28">
                <path
   d="m 5243.1,1766.7 15.16,-8.22 35.66,15.27 3.81,4.4 v 269.87 h -54.63 z m 75.96,-50.97 v 33.96 l -1.38,-0.59 -19.19,-22.21 z m -42.66,41.98 25.22,10.8 -14.39,-16.67 z m -18.83,-12.9 -10.47,5.67 v -10.15 z m 3.87,-42.23 27.78,32.17 -12.84,6.96 -14.94,-6.4 z m 57.95,-2.56 -26.74,6.61 -7.92,-40.93 30.16,15.03 z"
   style="fill:#000000;fill-rule:nonzero"
   id="path26" />
            </g><g
   transform="matrix(392.94,105.29,-105.29,392.94,1347.0545,508.38941)"
   style="fill:#000000"
   id="g32">
                <path
   d="m 0.259,-0.128 c 0.005,0.002 0.01,0.003 0.015,0.003 0.006,0.001 0.011,0.001 0.016,0.001 0.013,0 0.026,-0.002 0.038,-0.005 0.012,-0.004 0.023,-0.009 0.034,-0.016 0.01,-0.006 0.02,-0.015 0.028,-0.024 0.008,-0.01 0.015,-0.02 0.02,-0.032 l 0.098,0.098 C 0.495,-0.085 0.481,-0.07 0.465,-0.056 0.449,-0.042 0.432,-0.03 0.413,-0.02 0.394,-0.01 0.374,-0.003 0.354,0.002 0.333,0.007 0.312,0.01 0.29,0.01 0.253,0.01 0.219,0.003 0.186,-0.011 0.154,-0.024 0.126,-0.043 0.101,-0.068 0.077,-0.092 0.058,-0.121 0.044,-0.155 0.03,-0.189 0.023,-0.226 0.023,-0.266 c 0,-0.041 0.007,-0.079 0.021,-0.113 0.014,-0.035 0.033,-0.064 0.057,-0.088 0.025,-0.024 0.053,-0.043 0.085,-0.056 0.033,-0.013 0.067,-0.02 0.104,-0.02 0.022,0 0.043,0.003 0.064,0.008 0.021,0.005 0.041,0.013 0.059,0.022 0.019,0.01 0.037,0.022 0.053,0.036 0.016,0.014 0.03,0.03 0.043,0.048 z M 0.327,-0.403 C 0.321,-0.405 0.315,-0.407 0.309,-0.407 0.303,-0.408 0.297,-0.408 0.29,-0.408 c -0.018,0 -0.035,0.003 -0.051,0.01 -0.017,0.006 -0.031,0.016 -0.042,0.028 -0.012,0.013 -0.022,0.028 -0.029,0.045 -0.006,0.017 -0.01,0.037 -0.01,0.059 0,0.005 0,0.01 0.001,0.016 0,0.007 0.001,0.013 0.002,0.019 0.002,0.007 0.003,0.013 0.005,0.019 0.001,0.005 0.003,0.011 0.006,0.015 z"
   style="fill:#000000;fill-rule:nonzero"
   id="path30" />
            </g><g
   transform="matrix(406.81,0,0,406.81,1588.9545,540.06941)"
   style="fill:#000000"
   id="g36">
                <path
   d="M 0.338,0 H 0.033 v -0.133 h 0.305 c 0.009,0 0.017,-0.003 0.023,-0.01 0.007,-0.006 0.01,-0.014 0.01,-0.023 0,-0.009 -0.003,-0.016 -0.01,-0.019 C 0.355,-0.188 0.347,-0.189 0.338,-0.189 H 0.199 C 0.176,-0.189 0.154,-0.193 0.134,-0.202 0.114,-0.211 0.097,-0.223 0.082,-0.238 0.067,-0.253 0.055,-0.271 0.046,-0.291 0.038,-0.311 0.033,-0.333 0.033,-0.356 c 0,-0.023 0.005,-0.045 0.013,-0.065 0.009,-0.02 0.021,-0.038 0.036,-0.053 0.015,-0.015 0.032,-0.026 0.052,-0.035 0.02,-0.009 0.042,-0.013 0.065,-0.013 h 0.27 v 0.133 h -0.27 c -0.009,0 -0.017,0.003 -0.023,0.01 -0.007,0.006 -0.01,0.014 -0.01,0.023 0,0.009 0.003,0.018 0.01,0.024 0.006,0.007 0.014,0.01 0.023,0.01 h 0.139 c 0.023,0 0.044,0.004 0.064,0.012 0.021,0.007 0.038,0.018 0.053,0.032 0.015,0.013 0.027,0.03 0.036,0.049 0.009,0.019 0.013,0.04 0.013,0.063 0,0.023 -0.004,0.045 -0.013,0.065 C 0.482,-0.081 0.47,-0.064 0.455,-0.049 0.44,-0.033 0.423,-0.022 0.402,-0.013 0.382,-0.004 0.361,0 0.338,0 Z"
   style="fill:#000000;fill-rule:nonzero"
   id="path34" />
            </g><g
   transform="matrix(406.81,0,0,406.81,1802.1545,540.06941)"
   style="fill:#000000"
   id="g40">
                <path
   d="M 0.338,0 H 0.033 v -0.133 h 0.305 c 0.009,0 0.017,-0.003 0.023,-0.01 0.007,-0.006 0.01,-0.014 0.01,-0.023 0,-0.009 -0.003,-0.016 -0.01,-0.019 C 0.355,-0.188 0.347,-0.189 0.338,-0.189 H 0.199 C 0.176,-0.189 0.154,-0.193 0.134,-0.202 0.114,-0.211 0.097,-0.223 0.082,-0.238 0.067,-0.253 0.055,-0.271 0.046,-0.291 0.038,-0.311 0.033,-0.333 0.033,-0.356 c 0,-0.023 0.005,-0.045 0.013,-0.065 0.009,-0.02 0.021,-0.038 0.036,-0.053 0.015,-0.015 0.032,-0.026 0.052,-0.035 0.02,-0.009 0.042,-0.013 0.065,-0.013 h 0.27 v 0.133 h -0.27 c -0.009,0 -0.017,0.003 -0.023,0.01 -0.007,0.006 -0.01,0.014 -0.01,0.023 0,0.009 0.003,0.018 0.01,0.024 0.006,0.007 0.014,0.01 0.023,0.01 h 0.139 c 0.023,0 0.044,0.004 0.064,0.012 0.021,0.007 0.038,0.018 0.053,0.032 0.015,0.013 0.027,0.03 0.036,0.049 0.009,0.019 0.013,0.04 0.013,0.063 0,0.023 -0.004,0.045 -0.013,0.065 C 0.482,-0.081 0.47,-0.064 0.455,-0.049 0.44,-0.033 0.423,-0.022 0.402,-0.013 0.382,-0.004 0.361,0 0.338,0 Z"
   style="fill:#000000;fill-rule:nonzero"
   id="path38" />
            </g><g
   transform="matrix(0.53704,-1.5741,1.9299,0.6584,-5324.3455,6124.4194)"
   style="fill:#000000;stroke:#ffffff"
   id="g44">
                <path
   d="m 4560.9,1811.8 8.29,8.48 -8.84,-2.83 -13.58,-11.15 z m -10.47,-23.02 0.12,0.18 c 1.43,2.13 2.79,4.3 4.06,6.51 h -18.37 l 7.52,-10.45 z m -23.58,-17.65 1.46,16.63 8.09,-11.25 z m 7.52,-27.13 14.14,9.63 v -6.42 l -11.9,-6.71 z m 5.4,16.26 c 1.02,0.87 2.02,1.76 3.01,2.66 3.32,3.06 6.45,6.31 9.38,9.77 l -0.49,0.68 -11.9,-6.7 z m -17.13,-7.45 c 1.65,1.11 3.28,2.27 4.87,3.47 l 0.96,2.03 v 6.1 l -9.74,-5.49 z m -10.91,-17.75 c 1.87,0.9 3.72,1.85 5.54,2.86 1.61,0.9 3.19,1.82 4.74,2.79 l -7.96,12.44 -7.43,-8.16 z m -28.38,-2.31 c 0.74,0.18 1.49,0.38 2.24,0.58 5.22,1.4 10.27,3.15 15.14,5.27 l -4.35,8.45 z"
   style="fill:#000000;fill-rule:nonzero;stroke:#ffffff;stroke-width:1.19px;stroke-linecap:round"
   id="path42" />
            </g>
</svg>
